<svg width="158" height="145" viewBox="0 0 158 145" fill="none" xmlns="http://www.w3.org/2000/svg">
<path d="M85.2466 0.0220292C85.9239 0.0147953 86.6012 0.00756147 87.2991 0.000108393C93.8344 -0.0109871 99.8423 0.828358 105.958 3.16017C106.436 3.3403 106.915 3.52043 107.407 3.70603C123.767 10.0744 135.683 22.5022 142.774 38.3235C145.473 44.5168 147.979 50.7942 150.481 57.069C151.353 59.2536 152.244 61.4287 153.162 63.5947C159.838 79.5338 159.047 96.3572 152.993 112.367C151.771 115.25 150.438 118.075 149.08 120.896C148.717 121.659 148.356 122.422 147.994 123.186C147.444 124.348 146.894 125.51 146.342 126.671C144.51 130.525 142.73 134.402 140.958 138.285C139.605 141.245 139.605 141.245 138.226 144.266C128.674 144.266 119.122 144.266 109.281 144.266C110.743 140.61 112.207 137.027 113.868 133.469C114.075 133.022 114.282 132.575 114.496 132.115C114.939 131.159 115.382 130.203 115.826 129.248C117.016 126.69 118.2 124.13 119.385 121.57C119.627 121.048 119.868 120.527 120.117 119.989C122.939 113.897 125.737 107.793 128.518 101.682C128.708 101.265 128.898 100.847 129.094 100.418C129.464 99.6048 129.834 98.792 130.203 97.9792C131.251 95.6805 132.315 93.3905 133.394 91.1065C140.551 75.8581 143.349 59.8333 137.561 43.6237C132.135 29.1801 122.369 17.7255 108.201 11.2899C93.7657 5.38982 78.1218 4.50031 63.5858 10.4584C57.0974 13.2492 51.4306 16.7765 46.0753 21.3983C45.6747 21.7417 45.2742 22.0851 44.8615 22.439C39.2678 27.6171 35.4253 34.3474 32.633 41.3693C31.1302 45.1218 31.1302 45.1218 29.5354 46.208C25.627 46.1395 22.4592 44.7701 18.9027 43.2545C12.8375 40.9317 6.41699 40.63 0 40.301C0 38.1567 0 36.0124 0 33.8032C8.84756 33.4003 18.6794 34.876 26.5819 39.1195C26.7524 38.4373 26.923 37.755 27.0987 37.0521C31.4969 24.0416 43.5616 12.6419 55.5277 6.59914C65.4026 1.91992 74.3469 0.0280947 85.2466 0.0220292Z" fill="#FEFEFD"/>
<path d="M147.086 66.2922C151.292 72.6003 151.427 80.478 151.406 87.8162C151.415 88.4805 151.425 89.1449 151.435 89.8294C151.442 101.785 146.329 112.372 141.253 122.926C140.415 124.683 139.58 126.441 138.745 128.199C138.544 128.622 138.343 129.044 138.135 129.48C136.348 133.244 134.636 137.039 132.98 140.863C131.781 143.622 131.781 143.622 131.137 144.266C130.042 144.317 128.945 144.329 127.849 144.323C127.185 144.322 126.52 144.32 125.836 144.318C125.137 144.313 124.437 144.308 123.717 144.303C123.015 144.3 122.313 144.297 121.59 144.295C119.85 144.288 118.11 144.278 116.37 144.266C117.697 139.841 119.567 135.744 121.555 131.585C122.554 129.494 123.542 127.397 124.531 125.301C124.736 124.867 124.94 124.434 125.151 123.988C128.268 117.378 131.277 110.719 134.281 104.058C135.313 101.768 136.351 99.482 137.396 97.1983C142.063 86.9841 146.003 77.5449 147.086 66.2922Z" fill="#F3DED0"/>
<path d="M35.4424 119.456C37.4617 121.217 38.8801 123.201 39.1713 125.88C38.9867 127.726 38.9867 127.726 38.0637 129.166C36.6239 130.089 36.6239 130.089 34.5564 130.236C32.3432 129.446 32.0987 129.266 31.0491 127.32C30.1785 125.226 29.7551 123.507 30.1261 121.228C31.4281 119.058 33.0726 119.029 35.4424 119.456Z" fill="#FEFCFB"/>
<path d="M107.435 55.8809C110.108 56.4155 110.69 57.5872 112.235 59.7943C113.064 61.4537 112.972 62.6817 112.825 64.52C112.161 65.9229 112.161 65.9229 111.053 66.8828C109.355 67.252 109.355 67.252 107.509 66.8828C105.492 65.1189 104.051 63.149 103.817 60.4589C104.039 57.6809 104.644 56.4876 107.435 55.8809Z" fill="#FEFCFB"/>
<path d="M82.1085 100.553C83.7649 101.98 84.9615 103.079 85.182 105.313C85.1911 105.777 85.2003 106.241 85.2097 106.719C85.2325 107.412 85.2325 107.412 85.2558 108.119C85.016 109.721 84.5604 110.213 83.2899 111.186C81.8869 111.518 81.8869 111.518 80.3363 111.186C78.0032 108.8 76.9053 107.138 76.6075 103.802C76.7921 101.735 76.7921 101.735 77.7889 100.553C79.5577 99.7883 80.3103 99.8789 82.1085 100.553Z" fill="#FEFCFB"/>
<path d="M74.0601 31.7727C76.2014 32.0311 76.2014 32.0311 77.6043 33.1756C78.856 35.5346 79.3591 37.6271 79.1549 40.3011C78.2319 41.8517 78.2319 41.8517 76.7921 42.6639C75.0569 42.8116 75.0569 42.8116 73.2478 42.0732C71.1807 39.89 70.2825 38.0779 70.3312 35.0585C71.084 32.5492 71.4376 32.1127 74.0601 31.7727Z" fill="#FEFCFC"/>
<path d="M40.3897 71.9409C42.531 72.1994 42.531 72.1994 43.9339 73.6023C45.4965 76.1265 45.8043 78.1037 45.4845 81.06C44.8569 82.2783 44.8569 82.2783 43.7124 82.8321C41.6819 82.869 41.6819 82.869 39.5775 82.2414C37.6226 80.2364 37.068 78.6216 36.9931 75.8913C37.0395 73.1656 37.5195 72.313 40.3897 71.9409Z" fill="#FEFDFC"/>
<path d="M72.6571 141.903C73.047 142.683 73.4369 143.462 73.8386 144.266C71.4994 144.266 69.1602 144.266 66.7501 144.266C66.945 143.486 67.1399 142.706 67.3408 141.903C69.2197 140.963 70.6631 141.44 72.6571 141.903Z" fill="#FEFDFC"/>
</svg>
