<svg width="672" height="147" viewBox="0 0 672 147" fill="none" xmlns="http://www.w3.org/2000/svg">
<path d="M542.126 0.358825C543.126 1.35883 543.126 1.35883 543.188 4.23383C542.593 7.97989 540.929 10.2 538.626 13.1713C532.901 20.5765 529.128 28.9368 525.126 37.3588C526.501 37.3353 526.501 37.3353 527.905 37.3112C531.353 37.2597 534.8 37.2223 538.248 37.194C539.732 37.1791 541.216 37.1587 542.7 37.1325C561.794 36.8042 561.794 36.8042 570.126 42.3588C570.126 43.6788 570.126 44.9988 570.126 46.3588C567.876 46.6088 567.876 46.6088 565.126 46.3588C563.771 45.0475 562.439 43.7119 561.126 42.3588C549.651 37.5537 535.077 40.6327 523.126 42.3588C515.264 64.6042 507.154 87.5662 506.813 111.421C506.784 112.103 506.755 112.784 506.725 113.486C506.661 118.612 507.89 121.435 511.126 125.359C512.116 126.019 513.106 126.679 514.126 127.359C514.126 128.679 514.126 129.999 514.126 131.359C510.876 131.359 510.876 131.359 507.126 130.359C500.518 122.52 501.672 109.976 502.328 100.417C502.617 97.3292 502.952 94.2513 503.313 91.1713C503.505 89.5067 503.505 89.5067 503.701 87.8085C505.131 76.1773 507.503 64.7728 510.126 53.3588C509.497 54.47 508.868 55.5812 508.22 56.726C491.757 85.4819 491.757 85.4819 480.126 89.3588C475.638 89.8714 472.179 89.9075 468.126 87.7963C465.576 84.6888 465.354 82.3161 465.126 78.3588C464.41 78.6618 463.695 78.9647 462.958 79.2768C455.402 82.4537 447.79 85.4538 440.126 88.3588C440.016 89.452 439.907 90.5451 439.794 91.6713C439.262 96.9032 438.695 102.131 438.126 107.359C438.019 108.364 437.912 109.369 437.801 110.405C434.494 140.99 434.494 140.99 429.126 146.359C426.251 146.796 426.251 146.796 423.126 146.359C418.947 142.412 417.363 137.849 416.825 132.195C416.766 114.62 420.535 97.491 424.126 80.3588C422.836 81.1168 422.836 81.1168 421.52 81.8901C413.495 86.3878 406.548 89.2144 397.126 87.3588C394.029 86.0457 393.266 85.1524 391.126 82.3588C390.251 78.5463 390.251 78.5463 390.126 75.3588C389.523 76.0575 388.919 76.7562 388.298 77.476C387.499 78.3861 386.699 79.2962 385.876 80.2338C384.693 81.5912 384.693 81.5912 383.485 82.976C380.602 85.8874 378.589 87.1447 374.563 87.7338C372.126 87.3588 372.126 87.3588 370.313 85.7963C368.604 82.2879 368.623 80.2565 369.126 76.3588C371.877 68.6422 375.999 62.8575 383.442 59.2299C388.924 57.4505 395.962 56.9356 401.306 59.3393C402.938 60.6088 402.938 60.6088 405.126 63.3588C405.126 64.6788 405.126 65.9988 405.126 67.3588C403.806 67.3588 402.486 67.3588 401.126 67.3588C399.369 71.8597 398.847 75.5327 399.126 80.3588C399.621 81.3488 399.621 81.3488 400.126 82.3588C406.119 84.2694 410.666 81.8773 416.126 79.3588C417.076 78.9373 418.026 78.5158 419.005 78.0815C428.996 72.3977 430.85 62.4253 434.17 52.1547C437.574 42.1989 442.768 27.8128 452.165 22.1245C454.857 21.0732 456.421 21.4335 459.126 22.3588C461.692 26.2085 460.999 27.4823 460.126 31.9213C459.407 35.316 459.407 35.316 459.126 38.3588C461.953 41.1861 464.817 40.9107 468.626 41.1088C469.4 41.1512 470.175 41.1936 470.973 41.2372C482.361 41.6814 493.809 40.582 505.126 39.3588C506.92 39.2989 506.92 39.2989 508.75 39.2377C512.352 38.6806 512.352 38.6806 514.202 35.5107C514.788 34.2613 515.346 32.9985 515.88 31.726C516.343 30.7209 516.343 30.7209 516.816 29.6955C517.799 27.5522 518.745 25.3951 519.688 23.2338C520.945 20.4116 522.218 17.597 523.505 14.7885C523.964 13.7856 523.964 13.7856 524.432 12.7623C528.566 3.97959 531.957 -1.49002 542.126 0.358825ZM455.126 26.3588C449.991 33.9404 445.28 41.7228 442.126 50.3588C442.456 51.0188 442.786 51.6788 443.126 52.3588C448.222 45.5445 453.2 38.4063 456.126 30.3588C455.886 28.0827 455.886 28.0827 455.126 26.3588ZM455.126 42.3588C454.676 43.0627 454.226 43.7665 453.763 44.4916C452.798 45.9728 452.798 45.9728 451.813 47.4838C451.462 48.0266 451.111 48.5694 450.75 49.1286C448.774 52.1158 446.73 54.881 444.321 57.5346C435.63 67.2321 433.309 76.7068 431.126 89.3588C430.746 91.419 430.364 93.4789 429.981 95.5385C428.962 101.135 427.994 106.737 427.126 112.359C427.018 113.055 426.909 113.751 426.798 114.468C426.07 119.619 426.008 124.671 426.063 129.859C426.068 130.681 426.072 131.504 426.077 132.351C426.089 134.354 426.107 136.356 426.126 138.359C428.382 134.975 428.802 132.649 429.528 128.664C429.65 128.003 429.772 127.342 429.898 126.661C430.158 125.249 430.415 123.837 430.668 122.424C431.064 120.228 431.473 118.035 431.884 115.842C433.012 109.789 434.122 103.746 434.903 97.6362C435.01 96.8584 435.116 96.0806 435.226 95.2792C435.479 93.3367 435.691 91.3888 435.899 89.4409C437.728 84.8453 440.758 83.4025 445.126 81.3588C447.525 80.3969 449.94 79.5269 452.384 78.6833C461.943 75.3641 467.889 71.7784 474.13 63.8002C476.126 61.3588 476.126 61.3588 479.126 60.3588C482.751 60.2338 482.751 60.2338 486.126 60.3588C487.126 61.3588 487.126 61.3588 487.188 64.4213C487.168 65.3907 487.147 66.3601 487.126 67.3588C483.126 68.6922 479.126 70.0255 475.126 71.3588C473.872 75.1208 473.684 78.4244 474.126 82.3588C475.068 84.5529 475.068 84.5529 477.126 85.3588C480.192 85.4982 482.18 85.0173 484.72 83.2495C495.856 73.0585 503.219 57.5548 510.126 44.3588C510.126 44.0288 510.126 43.6988 510.126 43.3588C509.525 43.361 508.925 43.3633 508.306 43.3656C502.044 43.3877 495.782 43.4028 489.52 43.4138C487.185 43.4188 484.849 43.4256 482.514 43.4343C479.153 43.4464 475.792 43.4521 472.431 43.4565C470.869 43.4642 470.869 43.4642 469.276 43.4721C464.445 43.4725 459.875 43.3816 455.126 42.3588ZM381.813 69.1713C379.103 72.9437 378.318 75.7515 378.126 80.3588C382.314 77.9504 384.996 75.4261 388.063 71.6713C392.19 66.8211 392.19 66.8211 396.126 66.2963C397.116 66.317 398.106 66.3376 399.126 66.3588C399.126 65.3688 399.126 64.3788 399.126 63.3588C391.934 58.5645 386.625 63.2431 381.813 69.1713ZM480.126 63.3588C479.466 64.6788 478.806 65.9988 478.126 67.3588C479.446 66.0388 480.766 64.7188 482.126 63.3588C481.466 63.3588 480.806 63.3588 480.126 63.3588Z" fill="white"/>
<path d="M317.294 59.3472C318.938 60.6089 318.938 60.6089 321.126 63.3589C321.126 64.6789 321.126 65.9989 321.126 67.3589C319.806 67.3589 318.486 67.3589 317.126 67.3589C315.369 71.8598 314.847 75.5328 315.126 80.3589C315.456 81.0189 315.786 81.6789 316.126 82.3589C322.06 84.2506 326.744 81.9585 332.126 79.3589C339.081 75.306 339.081 75.306 344.126 69.3589C345.446 69.3589 346.766 69.3589 348.126 69.3589C347.161 74.5712 344.202 77.1646 340.126 80.3589C331.664 85.8024 323.418 89.3856 313.126 87.3589C310.029 86.0458 309.266 85.1525 307.126 82.3589C306.251 78.5464 306.251 78.5464 306.126 75.3589C305.523 76.0576 304.919 76.7562 304.298 77.4761C303.499 78.3861 302.699 79.2962 301.876 80.2339C301.087 81.1388 300.298 82.0437 299.485 82.9761C296.602 85.8875 294.589 87.1447 290.563 87.7339C288.126 87.3589 288.126 87.3589 286.313 85.6089C285.126 83.3589 285.126 83.3589 285.126 79.3589C284.474 79.7688 283.821 80.1787 283.149 80.6011C274.393 85.9997 267.57 88.5437 257.126 87.3589C253.938 85.6714 253.938 85.6714 252.126 83.3589C251.742 81.7031 251.401 80.0361 251.126 78.3589C250.641 78.783 250.157 79.2071 249.657 79.644C248.242 80.8819 246.826 82.1174 245.407 83.3511C243.954 84.6302 242.515 85.9256 241.095 87.2417C234.874 92.9438 228.814 97.031 220.126 97.3589C217.196 96.6263 215.588 95.7572 213.313 93.7964C211.479 90.0303 211.572 86.4694 212.126 82.3589C213.626 78.7964 213.626 78.7964 215.126 76.3589C205.786 75.1537 196.524 75.2667 187.126 75.3589C187.024 75.9884 186.921 76.618 186.816 77.2666C185.832 83.0428 184.268 86.2172 180.126 90.3589C176.935 91.9543 173.59 91.87 170.126 91.3589C167.201 88.8114 166.649 86.1245 166.126 82.3589C165.472 82.9564 165.472 82.9564 164.806 83.5659C158.239 89.4073 153.473 91.6712 144.614 91.855C142.126 91.3589 142.126 91.3589 140.294 89.644C138.946 87.0065 138.882 85.2818 139.126 82.3589C138.401 83.0692 137.677 83.7794 136.931 84.5112C135.955 85.4403 134.978 86.3686 134.001 87.2964C133.527 87.765 133.052 88.2335 132.563 88.7163C129.195 91.8796 126.727 93.038 122.126 93.3589C121.126 90.3589 121.126 90.3589 122.708 86.8472C123.442 85.4501 124.186 84.0583 124.938 82.6714C127.86 77.2715 129.848 72.3837 131.126 66.3589C125.182 71.6036 121.631 78.2461 118.177 85.3081C117.837 85.9876 117.497 86.6671 117.147 87.3672C116.476 88.7168 115.824 90.0758 115.193 91.4443C114.251 93.3315 114.251 93.3315 112.126 96.3589C108.876 97.2925 108.876 97.2925 106.126 97.3589C103.672 93.678 103.898 90.9153 104.001 86.6714C104.01 85.9695 104.019 85.2676 104.028 84.5444C104.052 82.8158 104.088 81.0873 104.126 79.3589C103.185 79.9132 102.244 80.4675 101.274 81.0386C100.017 81.7706 98.7589 82.5024 97.5009 83.2339C96.8834 83.5987 96.266 83.9635 95.6298 84.3393C89.696 87.7747 84.5189 89.6518 77.5634 89.7339C76.469 89.7622 75.3746 89.7906 74.247 89.8198C70.4116 89.2534 68.8435 88.0813 66.1259 85.3589C64.8134 83.1089 64.8134 83.1089 64.1259 81.3589C63.364 82.0646 63.364 82.0646 62.5868 82.7847C55.6859 89.0265 51.0281 91.6792 41.6142 91.7573C39.1259 91.3589 39.1259 91.3589 37.3564 90.1479C35.8308 87.9298 35.4835 86.005 35.1259 83.3589C34.5948 83.8294 34.0637 84.2999 33.5165 84.7847C32.8101 85.4073 32.1037 86.0299 31.3759 86.6714C30.6798 87.2863 29.9837 87.9011 29.2665 88.5347C25.2066 91.9945 25.2066 91.9945 23.1259 93.3589C20.3759 93.0464 20.3759 93.0464 18.1259 92.3589C18.8271 87.2676 21.1324 83.1689 23.5107 78.7065C25.631 74.6272 26.9993 70.7858 28.1259 66.3589C23.4118 69.5873 21.2327 73.1253 18.6259 78.0464C18.2372 78.7581 17.8484 79.4698 17.4479 80.2031C16.3312 82.2501 15.2273 84.3036 14.1259 86.3589C13.1503 88.1525 12.172 89.9447 11.1884 91.7339C10.8287 92.4016 10.4691 93.0694 10.0985 93.7573C9.12589 95.3589 9.12589 95.3589 7.12589 97.3589C4.62589 97.2964 4.62589 97.2964 2.12589 96.3589C-1.93758 88.7365 0.674608 79.2329 2.93839 71.3589C4.30472 66.8974 5.96318 63.8125 9.12589 60.3589C11.2509 59.4839 11.2509 59.4839 13.1259 59.3589C13.7859 59.6889 14.4459 60.0189 15.1259 60.3589C14.8805 67.3524 12.9449 72.8658 10.2094 79.2165C8.97019 82.1134 8.12589 84.17 8.12589 87.3589C8.996 85.6399 8.996 85.6399 9.8837 83.8862C10.6723 82.356 11.4614 80.8261 12.2509 79.2964C12.6299 78.5442 13.0089 77.792 13.3993 77.0171C16.6535 70.7528 20.2815 64.0938 27.1259 61.3589C29.8134 61.6089 29.8134 61.6089 32.1259 62.3589C33.3559 64.819 33.259 66.4906 33.2509 69.2339C33.2548 70.5294 33.2548 70.5294 33.2587 71.8511C33.1361 74.1655 32.7755 76.1418 32.1259 78.3589C32.657 77.9374 33.1881 77.5158 33.7353 77.0815C34.7949 76.2598 34.7949 76.2598 35.8759 75.4214C36.572 74.8761 37.2681 74.3308 37.9853 73.769C40.1135 72.367 41.6117 71.6916 44.1259 71.3589C44.7859 71.6889 45.4459 72.0189 46.1259 72.3589C45.1359 77.3089 44.1459 82.2589 43.1259 87.3589C56.3643 85.1525 64.5592 74.7315 72.1259 64.3589C74.665 60.9442 76.5236 60.0482 80.6259 59.3589C84.1126 59.0889 84.7877 59.1032 87.6884 61.2964C88.1628 61.977 88.6371 62.6576 89.1259 63.3589C88.6884 65.6714 88.6884 65.6714 87.1259 68.3589C83.2541 70.265 79.4403 71.3589 75.1259 71.3589C75.072 73.1502 75.0331 74.942 75.0009 76.7339C74.9777 77.7316 74.9545 78.7293 74.9306 79.7573C74.8537 82.5215 74.8537 82.5215 77.1259 84.3589C86.5973 85.762 94.5418 80.3865 102.063 75.1089C106.122 71.8398 108 68.3154 109.86 63.4956C111.126 61.3589 111.126 61.3589 113.579 59.9409C114.419 59.7488 115.26 59.5568 116.126 59.3589C117.116 60.0189 118.106 60.6789 119.126 61.3589C118.52 66.7241 116.697 71.1502 114.563 76.0464C113.911 77.5482 113.264 79.052 112.622 80.5581C112.335 81.2164 112.048 81.8747 111.753 82.553C110.962 84.5127 110.962 84.5127 111.126 87.3589C111.408 86.8398 111.69 86.3207 111.98 85.7859C113.274 83.4116 114.575 81.0415 115.876 78.6714C116.541 77.4464 116.541 77.4464 117.22 76.1968C124.035 63.819 124.035 63.819 131.126 61.3589C132.776 62.0189 134.426 62.6789 136.126 63.3589C136.126 68.3089 136.126 73.2589 136.126 78.3589C137.178 77.3895 138.23 76.4201 139.313 75.4214C142.185 72.9406 144.227 71.5952 148.126 71.3589C149.609 75.2162 148.44 77.5719 147.126 81.3589C146.957 84.1095 146.957 84.1095 147.126 86.3589C149.936 87.6257 149.936 87.6257 152.001 86.7495C160.36 82.2628 167.15 75.3735 172.876 67.8589C176.2 64.165 179.59 62.5409 184.575 62.1831C186.769 62.1728 188.937 62.2249 191.126 62.3589C191.456 63.6789 191.786 64.9989 192.126 66.3589C188.648 67.5183 186.667 67.0671 183.126 66.3589C183.621 66.8126 184.116 67.2664 184.626 67.7339C186.126 69.3589 186.126 69.3589 186.126 71.3589C189.794 71.4196 193.457 71.412 197.126 71.3589C197.92 71.355 198.714 71.3511 199.532 71.3472C201.887 71.2862 201.887 71.2862 205.126 70.3589C207.093 67.5082 207.093 67.5082 208.126 64.3589C210.126 62.3589 210.126 62.3589 212.751 62.2339C213.535 62.2751 214.318 62.3164 215.126 62.3589C215.456 63.3489 215.786 64.3389 216.126 65.3589C215.466 66.3489 214.806 67.3389 214.126 68.3589C214.692 68.6244 215.258 68.89 215.841 69.1636C216.574 69.5168 217.308 69.87 218.063 70.2339C218.794 70.5819 219.525 70.93 220.278 71.2886C222.126 72.3589 222.126 72.3589 223.126 74.3589C223.08 80.0901 221.785 84.2832 219.126 89.3589C219.456 90.3489 219.786 91.3389 220.126 92.3589C231.557 91.8725 239.531 82.747 246.883 74.8188C248.528 72.8869 249.777 70.8271 251.001 68.6089C251.702 67.5364 252.403 66.4639 253.126 65.3589C255.106 65.3589 257.086 65.3589 259.126 65.3589C259.126 70.6389 259.126 75.9189 259.126 81.3589C266.54 83.8301 269.378 82.6999 276.126 79.3589C281.503 76.0343 285.579 71.9415 289.688 67.1714C296.701 59.2418 306.678 54.5077 317.294 59.3472ZM297.813 69.1714C295.103 72.9437 294.318 75.7516 294.126 80.3589C298.314 77.9505 300.996 75.4262 304.063 71.6714C308.19 66.8212 308.19 66.8212 312.126 66.2964C313.116 66.317 314.106 66.3376 315.126 66.3589C315.126 65.3689 315.126 64.3789 315.126 63.3589C307.934 58.5646 302.625 63.2431 297.813 69.1714ZM80.1259 63.3589C79.4659 64.6789 78.8059 65.9989 78.1259 67.3589C79.4459 66.0389 80.7659 64.7189 82.1259 63.3589C81.4659 63.3589 80.8059 63.3589 80.1259 63.3589ZM179.126 69.3589C176.497 74.7307 175.517 79.4038 175.126 85.3589C179.021 85.821 179.021 85.821 180.751 83.7964C182.464 80.7595 183.283 77.7307 184.126 74.3589C183.136 74.0289 182.146 73.6989 181.126 73.3589C179.938 71.2964 179.938 71.2964 179.126 69.3589Z" fill="white"/>
<path d="M631.126 58.0464C632.137 58.0296 633.147 58.0129 634.188 57.9956C638.496 58.5284 641.098 60.3314 644.126 63.3589C644.126 64.6789 644.126 65.9989 644.126 67.3589C642.476 67.0289 640.826 66.6989 639.126 66.3589C638.09 71.4089 638.023 76.2331 638.126 81.3589C641.113 82.9736 643.306 83.5246 646.657 82.8472C654.036 80.3909 660.468 76.5412 665.626 70.644C667.126 69.3589 667.126 69.3589 671.126 69.3589C670.372 75.3913 664.608 78.8404 660.126 82.3589C654.278 86.0125 649.027 87.5054 642.188 87.6089C641.169 87.6347 640.149 87.6604 639.099 87.687C635.645 87.3058 633.856 86.4919 631.126 84.3589C629.669 81.7591 629.02 79.2303 628.126 76.3589C627.595 76.9854 627.064 77.6119 626.517 78.2573C625.81 79.0746 625.104 79.8919 624.376 80.7339C623.68 81.546 622.984 82.3581 622.267 83.1948C620.227 85.2567 618.838 86.399 616.126 87.3589C612.438 87.1089 612.438 87.1089 609.126 86.3589C607.923 83.9534 608.025 82.4089 608.063 79.7339C608.072 78.9166 608.082 78.0994 608.091 77.2573C608.102 76.6308 608.114 76.0044 608.126 75.3589C607.547 75.5187 606.968 75.6786 606.372 75.8433C601.639 76.9299 597.601 77.0643 593.251 74.9839C591.126 73.3589 591.126 73.3589 589.126 71.3589C587.475 73.2717 585.83 75.1882 584.188 77.1089C583.691 77.6893 583.194 78.2697 582.682 78.8677C578.546 83.7472 574.825 88.8228 571.196 94.0933C568.837 96.6748 567.556 97.096 564.126 97.3589C561.97 94.1256 561.778 92.7041 561.501 88.9214C561.426 87.9739 561.351 87.0265 561.274 86.0503C561.152 83.8227 561.126 81.5899 561.126 79.3589C560.546 79.7688 559.966 80.1787 559.368 80.6011C551.142 86.2749 544.267 88.7462 534.126 87.3589C531.337 85.9933 530.205 84.775 528.126 82.3589C526.433 77.2812 526.402 72.3299 528.251 67.2964C530.126 65.3589 530.126 65.3589 533.243 65.2378C534.67 65.2977 534.67 65.2977 536.126 65.3589C535.983 66.6969 535.983 66.6969 535.837 68.062C535.671 69.8177 535.671 69.8177 535.501 71.6089C535.385 72.769 535.269 73.9292 535.149 75.1245C535.126 78.3243 535.177 79.8478 537.126 82.3589C540.989 84.0477 543.841 82.8082 547.618 81.437C555.877 77.8864 561.88 73.7212 566.563 65.9839C568.126 64.3589 568.126 64.3589 571.313 64.1089C572.242 64.1914 573.17 64.2739 574.126 64.3589C573.698 72.6334 571.082 79.6919 568.126 87.3589C568.456 87.6889 568.786 88.0189 569.126 88.3589C569.709 87.5829 570.291 86.8069 570.892 86.0073C575.611 79.7687 580.451 73.6466 585.501 67.6714C586 67.0718 586.499 66.4722 587.014 65.8545C591.578 60.5132 591.578 60.5132 595.126 59.3589C597.376 59.7339 597.376 59.7339 599.126 60.3589C599.126 61.6789 599.126 62.9989 599.126 64.3589C597.5 65.7412 595.833 67.0783 594.126 68.3589C594.126 69.0189 594.126 69.6789 594.126 70.3589C598.472 72.532 604.384 71.504 609.126 71.1089C611.29 70.5569 611.29 70.5569 612.044 68.5073C613.231 66.1499 614.435 64.931 616.438 63.2339C617.012 62.7363 617.586 62.2387 618.177 61.7261C622.355 58.7951 626.07 58.0657 631.126 58.0464ZM625.126 64.3589C619.928 69.2968 617.269 73.2492 616.126 80.3589C620.991 78.5084 624.116 74.3721 627.528 70.6147C630.881 67.0949 633.051 65.6088 638.126 65.3589C637.796 64.3689 637.466 63.3789 637.126 62.3589C631.916 61.2352 629.305 60.9115 625.126 64.3589ZM629.126 73.3589C630.126 75.3589 630.126 75.3589 630.126 75.3589L629.126 73.3589Z" fill="white"/>
<path d="M12.1259 6.35889C13.7759 6.35889 15.4259 6.35889 17.1259 6.35889C18.6994 10.0038 20.2657 13.6517 21.8256 17.3025C22.3572 18.5439 22.8907 19.7845 23.4262 21.0242C24.1957 22.8067 24.9578 24.5925 25.7196 26.3784C26.1805 27.452 26.6413 28.5255 27.1161 29.6316C28.1259 32.3589 28.1259 32.3589 28.1259 35.3589C26.4759 35.3589 24.8259 35.3589 23.1259 35.3589C21.6653 32.7115 21.1259 31.4644 21.1259 28.3589C16.7218 28.3715 12.4516 28.4905 8.12589 29.3589C5.65614 32.1999 5.65614 32.1999 5.12589 35.3589C3.47589 35.3589 1.82589 35.3589 0.125885 35.3589C2.20656 28.5959 4.85838 22.2201 7.81339 15.7964C8.22911 14.8831 8.64483 13.9698 9.07315 13.0288C10.0867 10.8036 11.1043 8.58041 12.1259 6.35889ZM13.1259 14.3589C10.8354 19.171 10.8354 19.171 10.1259 24.3589C12.7659 24.3589 15.4059 24.3589 18.1259 24.3589C17.516 20.8011 16.5475 17.676 15.1259 14.3589C14.4659 14.3589 13.8059 14.3589 13.1259 14.3589Z" fill="white"/>
<path d="M331.126 15.3589C333.601 15.8539 333.601 15.8539 336.126 16.3589C336.456 16.0289 336.786 15.6989 337.126 15.3589C340.789 15.2232 343.632 15.1943 347.126 16.3589C347.786 16.0289 348.446 15.6989 349.126 15.3589C355.467 14.8977 355.467 14.8977 358.001 16.6714C360.546 20.4896 360.229 24.1036 360.188 28.5464C360.179 29.8187 360.17 31.091 360.161 32.4018C360.149 33.3777 360.138 34.3535 360.126 35.3589C358.476 35.3589 356.826 35.3589 355.126 35.3589C354.796 30.4089 354.466 25.4589 354.126 20.3589C352.146 20.3589 350.166 20.3589 348.126 20.3589C347.796 25.3089 347.466 30.2589 347.126 35.3589C345.806 35.3589 344.486 35.3589 343.126 35.3589C342.796 30.0789 342.466 24.7989 342.126 19.3589C340.146 19.6889 338.166 20.0189 336.126 20.3589C335.796 25.3089 335.466 30.2589 335.126 35.3589C333.806 35.3589 332.486 35.3589 331.126 35.3589C331.126 28.7589 331.126 22.1589 331.126 15.3589Z" fill="white"/>
<path d="M137.126 15.3589C139.601 15.8539 139.601 15.8539 142.126 16.3589C142.456 16.0289 142.786 15.6989 143.126 15.3589C146.789 15.2232 149.632 15.1943 153.126 16.3589C153.786 16.0289 154.446 15.6989 155.126 15.3589C161.467 14.8977 161.467 14.8977 164.001 16.6714C166.546 20.4896 166.229 24.1036 166.188 28.5464C166.179 29.8187 166.17 31.091 166.161 32.4018C166.149 33.3777 166.138 34.3535 166.126 35.3589C164.476 35.3589 162.826 35.3589 161.126 35.3589C160.796 30.4089 160.466 25.4589 160.126 20.3589C158.146 20.3589 156.166 20.3589 154.126 20.3589C153.796 25.3089 153.466 30.2589 153.126 35.3589C151.806 35.3589 150.486 35.3589 149.126 35.3589C148.796 30.0789 148.466 24.7989 148.126 19.3589C146.146 19.6889 144.166 20.0189 142.126 20.3589C141.796 25.3089 141.466 30.2589 141.126 35.3589C139.806 35.3589 138.486 35.3589 137.126 35.3589C137.126 28.7589 137.126 22.1589 137.126 15.3589Z" fill="white"/>
<path d="M223.126 4.35889C224.446 4.35889 225.766 4.35889 227.126 4.35889C227.126 14.5889 227.126 24.8189 227.126 35.3589C222.176 35.3589 217.226 35.3589 212.126 35.3589C207.828 31.0613 207.414 30.1135 207.02 24.5464C207.17 21.4437 208.134 19.7064 210.126 17.3589C214.168 14.6643 216.331 15.1269 221.126 15.3589C221.456 15.6889 221.786 16.0189 222.126 16.3589C222.456 12.3989 222.786 8.43889 223.126 4.35889ZM213.313 20.4839C211.591 23.2037 211.797 25.2047 212.126 28.3589C213.116 29.8439 213.116 29.8439 214.126 31.3589C217.256 31.7585 219.257 31.8804 222.001 30.2339C223.654 27.478 223.52 25.5081 223.126 22.3589C222.062 20.3786 222.062 20.3786 220.126 19.3589C217.271 18.9307 215.781 18.9523 213.313 20.4839Z" fill="white"/>
<path d="M96.1259 4.35889C97.4459 4.35889 98.7659 4.35889 100.126 4.35889C100.126 14.5889 100.126 24.8189 100.126 35.3589C95.1759 35.3589 90.2259 35.3589 85.1259 35.3589C80.8283 31.0613 80.4141 30.1135 80.0204 24.5464C80.17 21.4437 81.1341 19.7064 83.1259 17.3589C87.1678 14.6643 89.331 15.1269 94.1259 15.3589C94.4559 15.6889 94.7859 16.0189 95.1259 16.3589C95.4559 12.3989 95.7859 8.43889 96.1259 4.35889ZM86.3134 20.4839C84.5909 23.2037 84.7973 25.2047 85.1259 28.3589C86.1159 29.8439 86.1159 29.8439 87.1259 31.3589C90.2564 31.7585 92.2567 31.8804 95.0009 30.2339C96.6544 27.478 96.5195 25.5081 96.1259 22.3589C95.0624 20.3786 95.0624 20.3786 93.1259 19.3589C90.2711 18.9307 88.781 18.9523 86.3134 20.4839Z" fill="white"/>
<path d="M257.126 4.35889C258.446 4.35889 259.766 4.35889 261.126 4.35889C261.126 14.5889 261.126 24.8189 261.126 35.3589C259.476 35.0289 257.826 34.6989 256.126 34.3589C255.796 34.6889 255.466 35.0189 255.126 35.3589C250.728 35.9031 247.248 36.2004 243.626 33.4839C240.868 29.5775 240.45 26.0662 241.126 21.3589C242.92 18.5489 244.145 16.8495 247.126 15.3589C253.659 15.1256 253.659 15.1256 256.126 16.3589C256.456 12.3989 256.786 8.43889 257.126 4.35889ZM246.126 21.3589C244.918 24.55 244.975 25.9599 246.188 29.1714C247.985 31.6499 247.985 31.6499 251.126 31.9214C254.15 31.6081 254.15 31.6081 256.063 29.7339C257.491 26.5432 257.064 24.6795 256.126 21.3589C254.306 19.1182 254.306 19.1182 251.688 19.1089C248.885 19.1792 248.885 19.1792 246.126 21.3589Z" fill="white"/>
<path d="M372.501 14.9839C373.272 14.9349 374.043 14.8859 374.837 14.8354C377.126 15.3589 377.126 15.3589 379.399 17.394C381.541 21.0722 381.581 24.049 381.376 28.1714C381.358 28.8643 381.34 29.5571 381.321 30.271C381.274 31.9676 381.203 33.6634 381.126 35.3589C380.322 35.1733 379.517 34.9876 378.688 34.7964C377.843 34.652 376.997 34.5076 376.126 34.3589C375.796 34.6889 375.466 35.0189 375.126 35.3589C373.13 35.5269 373.13 35.5269 370.688 35.5464C369.484 35.5677 369.484 35.5677 368.255 35.5894C366.126 35.3589 366.126 35.3589 364.126 33.3589C363.559 27.121 363.559 27.121 365.352 24.7104C367.496 23.0765 369.175 22.6684 371.813 22.1714C373.026 21.9336 373.026 21.9336 374.263 21.6909C375.185 21.5266 375.185 21.5266 376.126 21.3589C375.023 20.0251 375.023 20.0251 372.251 20.2964C371.22 20.317 370.188 20.3376 369.126 20.3589C368.136 20.3589 367.146 20.3589 366.126 20.3589C366.126 19.0389 366.126 17.7189 366.126 16.3589C368.413 15.2153 369.954 15.0939 372.501 14.9839ZM370.126 26.3589C369.466 27.6789 368.806 28.9989 368.126 30.3589C370.454 31.5573 370.454 31.5573 373.126 32.3589C376.251 30.7242 376.251 30.7242 376.813 28.2339C376.968 27.3058 376.968 27.3058 377.126 26.3589C374.816 26.3589 372.506 26.3589 370.126 26.3589Z" fill="white"/>
<path d="M68.5009 14.9839C69.2717 14.9349 70.0426 14.8859 70.8368 14.8354C73.1259 15.3589 73.1259 15.3589 75.3993 17.394C77.5413 21.0722 77.581 24.049 77.3759 28.1714C77.3578 28.8643 77.3398 29.5571 77.3212 30.271C77.2744 31.9676 77.2027 33.6634 77.1259 35.3589C76.3215 35.1733 75.5171 34.9876 74.6884 34.7964C73.8428 34.652 72.9971 34.5076 72.1259 34.3589C71.7959 34.6889 71.4659 35.0189 71.1259 35.3589C69.1298 35.5269 69.1298 35.5269 66.6884 35.5464C65.4837 35.5677 65.4837 35.5677 64.2548 35.5894C62.1259 35.3589 62.1259 35.3589 60.1259 33.3589C59.5588 27.121 59.5588 27.121 61.3524 24.7104C63.4964 23.0765 65.1752 22.6684 67.8134 22.1714C69.0257 21.9336 69.0257 21.9336 70.2626 21.6909C71.1849 21.5266 71.1849 21.5266 72.1259 21.3589C71.0226 20.0251 71.0226 20.0251 68.2509 20.2964C67.2196 20.317 66.1884 20.3376 65.1259 20.3589C64.1359 20.3589 63.1459 20.3589 62.1259 20.3589C62.1259 19.0389 62.1259 17.7189 62.1259 16.3589C64.4131 15.2153 65.9544 15.0939 68.5009 14.9839ZM66.1259 26.3589C65.4659 27.6789 64.8059 28.9989 64.1259 30.3589C66.4544 31.5573 66.4544 31.5573 69.1259 32.3589C72.2506 30.7242 72.2506 30.7242 72.8134 28.2339C72.9681 27.3058 72.9681 27.3058 73.1259 26.3589C70.8159 26.3589 68.5059 26.3589 66.1259 26.3589Z" fill="white"/>
<path d="M278.126 15.3589C280.36 16.3355 280.36 16.3355 282.126 18.3589C282.623 21.2675 282.501 24.1067 282.376 27.0464C282.358 27.8437 282.34 28.641 282.321 29.4624C282.274 31.4284 282.202 33.3938 282.126 35.3589C279.856 35.4399 277.585 35.4981 275.313 35.5464C273.417 35.5986 273.417 35.5986 271.481 35.6519C268.126 35.3589 268.126 35.3589 266.184 34.0659C265.126 32.3589 265.126 32.3589 265.001 28.8589C266.126 25.3589 266.126 25.3589 269.376 23.4214C272.569 22.5166 274.856 22.0617 278.126 22.3589C277.796 21.6989 277.466 21.0389 277.126 20.3589C273.783 20.2846 271.322 20.2934 268.126 21.3589C267.466 20.0389 266.806 18.7189 266.126 17.3589C269.778 14.9244 273.874 14.5865 278.126 15.3589ZM271.126 26.3589C270.466 27.6789 269.806 28.9989 269.126 30.3589C271.392 31.6493 271.392 31.6493 274.126 32.3589C276.51 31.3 276.51 31.3 278.126 29.3589C278.126 28.3689 278.126 27.3789 278.126 26.3589C275.816 26.3589 273.506 26.3589 271.126 26.3589Z" fill="white"/>
<path d="M117.126 15.3589C119.329 16.3393 119.329 16.3393 121.126 18.3589C121.766 21.2447 121.823 24.0983 121.876 27.0464C121.906 27.8437 121.935 28.6409 121.966 29.4624C122.036 31.4273 122.083 33.3931 122.126 35.3589C121.322 35.1732 120.517 34.9876 119.688 34.7964C118.843 34.652 117.997 34.5076 117.126 34.3589C116.796 34.6889 116.466 35.0189 116.126 35.3589C112.046 35.8546 108.352 36.2965 105.001 33.7339C103.767 30.3842 103.845 28.7025 105.126 25.3589C109.155 23.0346 112.475 21.9361 117.126 22.3589C116.796 21.6989 116.466 21.0389 116.126 20.3589C112.783 20.2846 110.322 20.2934 107.126 21.3589C106.466 20.3689 105.806 19.3789 105.126 18.3589C108.608 14.8771 112.426 14.4225 117.126 15.3589ZM109.126 27.3589C109.126 28.6789 109.126 29.9989 109.126 31.3589C110.918 32.1417 110.918 32.1417 113.126 32.3589C115.433 31.2119 115.433 31.2119 117.126 29.3589C117.126 28.3689 117.126 27.3789 117.126 26.3589C112.985 26.1492 112.985 26.1492 109.126 27.3589Z" fill="white"/>
<path d="M184.126 15.3589C186.936 17.1525 188.635 18.3777 190.126 21.3589C190.773 26.0629 190.764 29.3499 188.188 33.4214C184.084 36.0177 180.863 36.3115 176.126 35.3589C173.256 33.565 171.635 32.3763 170.126 29.3589C169.545 22.2693 169.545 22.2693 172.001 18.4214C175.635 14.8939 179.218 14.6537 184.126 15.3589ZM175.126 21.3589C173.918 24.55 173.975 25.9599 175.188 29.1714C176.984 31.65 176.984 31.65 180.126 31.9214C183.15 31.6081 183.15 31.6081 185.063 29.7339C186.491 26.5432 186.064 24.6795 185.126 21.3589C183.306 19.1182 183.306 19.1182 180.688 19.1089C177.885 19.1792 177.885 19.1792 175.126 21.3589Z" fill="white"/>
<path d="M309.126 15.3589C310.446 15.3589 311.766 15.3589 313.126 15.3589C313.456 20.6389 313.786 25.9189 314.126 31.3589C316.106 30.6989 318.086 30.0389 320.126 29.3589C321.477 26.6571 321.464 24.2408 321.688 21.2339C321.772 20.1382 321.856 19.0425 321.942 17.9136C322.003 17.0705 322.063 16.2275 322.126 15.3589C323.446 15.3589 324.766 15.3589 326.126 15.3589C326.126 21.9589 326.126 28.5589 326.126 35.3589C324.476 35.0289 322.826 34.6989 321.126 34.3589C320.796 34.6889 320.466 35.0189 320.126 35.3589C312.73 35.8361 312.73 35.8361 310.519 34.0891C308.823 31.9821 308.773 31.0175 308.833 28.3472C308.843 27.5898 308.852 26.8325 308.862 26.0522C308.887 25.2666 308.913 24.4809 308.938 23.6714C308.952 22.8741 308.965 22.0768 308.979 21.2554C309.015 19.2896 309.069 17.3242 309.126 15.3589Z" fill="white"/>
<path d="M55.1259 15.3589C56.1159 16.0189 57.1059 16.6789 58.1259 17.3589C57.4659 18.6789 56.8059 19.9989 56.1259 21.3589C53.4859 21.0289 50.8459 20.6989 48.1259 20.3589C45.7757 23.1964 45.7757 23.1964 46.4384 26.4839C46.8323 29.2397 46.8323 29.2397 48.1259 30.3589C50.1254 30.4023 52.1263 30.3988 54.1259 30.3589C55.1159 30.3589 56.1059 30.3589 57.1259 30.3589C57.1259 31.6789 57.1259 32.9989 57.1259 34.3589C55.4843 36.0004 53.6337 35.647 51.3759 35.7339C47.649 35.6698 46.2876 35.4559 43.0009 33.4839C40.3757 29.1086 40.1913 25.3434 41.1259 20.3589C44.8301 15.2964 49.0708 14.6514 55.1259 15.3589Z" fill="white"/>
<path d="M194.126 15.3589C198.086 15.3589 202.046 15.3589 206.126 15.3589C206.126 16.6789 206.126 17.9989 206.126 19.3589C204.146 20.0189 202.166 20.6789 200.126 21.3589C199.796 25.9789 199.466 30.5989 199.126 35.3589C197.476 35.3589 195.826 35.3589 194.126 35.3589C194.126 28.7589 194.126 22.1589 194.126 15.3589Z" fill="white"/>
<path d="M233.126 15.3589C234.446 15.3589 235.766 15.3589 237.126 15.3589C237.126 21.9589 237.126 28.5589 237.126 35.3589C235.806 35.3589 234.486 35.3589 233.126 35.3589C233.126 28.7589 233.126 22.1589 233.126 15.3589Z" fill="white"/>
<path d="M197.126 46.3589C197.876 48.4839 197.876 48.4839 198.126 51.3589C196.119 55.0141 194.608 57.0375 191.126 59.3589C189.806 59.3589 188.486 59.3589 187.126 59.3589C188.145 54.2652 190.763 46.3589 197.126 46.3589Z" fill="white"/>
<path d="M261.313 52.7339C261.912 52.9401 262.51 53.1464 263.126 53.3589C262.376 59.1089 262.376 59.1089 260.126 61.3589C257.501 61.4839 257.501 61.4839 255.126 61.3589C255.438 57.9839 255.438 57.9839 256.126 54.3589C259.126 52.3589 259.126 52.3589 261.313 52.7339Z" fill="white"/>
<path d="M539.126 52.3589C539.376 57.9839 539.376 57.9839 537.126 61.3589C534.501 61.5464 534.501 61.5464 532.126 61.3589C531.876 58.5464 531.876 58.5464 532.126 55.3589C534.584 52.8157 535.551 52.3589 539.126 52.3589Z" fill="white"/>
<path d="M288.126 30.3589C289.776 30.3589 291.426 30.3589 293.126 30.3589C292.136 33.6589 291.146 36.9589 290.126 40.3589C288.806 40.3589 287.486 40.3589 286.126 40.3589C286.584 36.8895 287.017 33.6849 288.126 30.3589Z" fill="white"/>
<path d="M233.126 6.35889C234.776 6.68889 236.426 7.01889 238.126 7.35889C237.796 9.00889 237.466 10.6589 237.126 12.3589C235.476 12.0289 233.826 11.6989 232.126 11.3589C232.456 9.70889 232.786 8.05889 233.126 6.35889Z" fill="white"/>
</svg>
