<svg width="673" height="1319" viewBox="0 0 673 1319" fill="none" xmlns="http://www.w3.org/2000/svg">
<path d="M403.8 734.412C403.8 734.831 403.8 735.249 403.8 735.681C404.571 735.812 405.342 735.942 406.137 736.077C409.46 736.813 412.273 738.296 415.265 739.905C416.89 740.81 416.89 740.81 418.756 741.389C418.756 741.808 418.756 742.226 418.756 742.658C419.321 742.841 419.887 743.024 420.469 743.213C422.072 743.777 423.5 744.38 424.987 745.195C424.987 745.613 424.987 746.032 424.987 746.463C425.661 746.702 425.661 746.702 426.348 746.946C431.348 749.184 435.358 753.709 439.047 757.721C439.366 758.065 439.686 758.409 440.015 758.764C441.732 760.681 442.918 762.372 443.682 764.857C444.093 764.857 444.504 764.857 444.928 764.857C450.826 773.052 455.924 783.015 458.637 792.764C458.944 793.704 459.255 794.642 459.572 795.578C459.72 796.04 459.869 796.502 460.022 796.978C460.366 798.038 460.722 799.093 461.088 800.145C462.852 805.487 463.792 810.87 464.677 816.425C464.824 817.343 464.824 817.343 464.973 818.28C465.101 819.108 465.101 819.108 465.232 819.953C465.435 821.332 465.435 821.332 466.115 822.574C467.37 831.085 467.6 839.765 467.753 848.359C467.777 849.532 467.811 850.705 467.856 851.877C468.195 861.317 468.195 861.317 466.322 864.048C464.956 865.094 464.956 865.094 463.415 865.984C461.405 867.179 460.006 868.622 458.386 870.319C457.536 871.199 457.536 871.199 456.669 872.097C455.794 873.013 454.919 873.929 454.044 874.845C453.183 875.744 452.318 876.639 451.454 877.534C450.948 878.064 450.442 878.593 449.92 879.139C448.667 880.291 448.667 880.291 447.42 880.291C447.266 880.684 447.112 881.076 446.953 881.481C446.026 883.085 445.279 883.284 443.682 884.097C443.255 884.937 442.841 885.784 442.435 886.634C439.849 889.544 439.849 889.544 437.956 890.479C436.468 891.263 436.306 892.091 435.581 893.611C434.57 894.695 433.528 895.751 432.465 896.782C431.951 897.319 431.437 897.855 430.907 898.407C429.349 899.953 429.349 899.953 427.869 901.103C426.444 902.312 425.362 903.477 424.169 904.909C422.309 907.128 420.325 909.032 418.128 910.902C416.228 912.589 414.489 914.43 412.725 916.262C411.582 917.448 410.437 918.631 409.292 919.814C408.9 920.223 408.508 920.632 408.105 921.054C407.729 921.44 407.354 921.826 406.967 922.224C406.628 922.576 406.289 922.928 405.939 923.29C405.046 924.055 405.046 924.055 403.8 924.055C403.656 924.422 403.512 924.789 403.364 925.168C402.35 926.95 401.165 927.849 399.555 929.09C397.277 930.888 395.191 932.702 393.207 934.838C392.168 935.895 391.129 936.952 390.091 938.009C389.766 938.354 389.442 938.699 389.107 939.054C388.212 939.997 387.284 940.908 386.352 941.814C385.941 941.814 385.529 941.814 385.106 941.814C384.949 942.188 384.792 942.562 384.631 942.947C383.763 944.527 382.849 945.381 381.484 946.532C379.477 948.261 377.594 950.044 375.758 951.963C375.06 952.672 374.362 953.381 373.664 954.09C372.368 955.415 371.081 956.748 369.792 958.08C368.73 959.172 367.668 960.265 366.606 961.358C365.796 962.198 365.796 962.198 364.969 963.056C364.453 963.585 363.937 964.115 363.405 964.66C362.935 965.145 362.466 965.63 361.982 966.129C360.803 967.185 360.803 967.185 359.557 967.185C359.4 967.558 359.243 967.932 359.082 968.317C358.214 969.897 357.3 970.751 355.934 971.902C353.913 973.617 352.063 975.432 350.209 977.333C349.666 977.89 349.122 978.446 348.562 979.02C347.983 979.613 347.405 980.206 346.809 980.816C345.826 981.822 344.842 982.827 343.858 983.832C343.188 984.518 342.518 985.204 341.848 985.891C338.104 989.732 334.346 993.515 330.269 996.995C328.17 998.805 326.118 1000.58 324.193 1002.58C322.791 1003.97 322.791 1003.97 320.921 1004.61C320.497 1005.45 320.083 1006.29 319.675 1007.14C318.507 1008.36 318.507 1008.36 317.182 1009.52C316.745 1009.91 316.308 1010.3 315.858 1010.7C314.69 1011.58 314.69 1011.58 313.444 1011.58C313.285 1011.96 313.127 1012.33 312.964 1012.72C312.113 1014.27 311.237 1015.12 309.899 1016.26C309.234 1016.83 309.234 1016.83 308.556 1017.42C308.112 1017.8 307.669 1018.17 307.212 1018.56C304.611 1020.8 302.113 1023.05 299.734 1025.54C296.619 1028.71 296.619 1028.71 295.061 1030.25C293.458 1031.88 293.458 1031.88 291.945 1033.78C290.387 1035.68 290.387 1035.68 288.907 1037.15C285.361 1040.85 281.714 1044.68 281.624 1050.07C282.2 1053.71 284.466 1056.33 286.648 1059.15C287.044 1059.67 287.44 1060.19 287.848 1060.72C289.095 1062.32 290.362 1063.91 291.633 1065.49C292.113 1066.1 292.592 1066.71 293.087 1067.33C293.571 1067.94 294.055 1068.55 294.554 1069.18C294.994 1069.73 295.433 1070.29 295.886 1070.86C297.303 1072.54 298.81 1074.08 300.357 1075.64C301.491 1076.8 302.625 1077.96 303.758 1079.13C304.741 1080.13 305.725 1081.14 306.708 1082.14C307.379 1082.83 308.049 1083.51 308.718 1084.2C312.463 1088.04 316.221 1091.82 320.298 1095.3C322.899 1097.55 325.364 1099.83 327.776 1102.28C331.314 1105.64 334.957 1108.81 338.757 1111.85C340.159 1113 341.507 1114.18 342.848 1115.4C344.679 1117.06 346.574 1118.5 348.588 1119.92C350.109 1121.07 351.382 1122.46 352.702 1123.85C353.113 1124.06 353.524 1124.27 353.948 1124.48C353.948 1124.9 353.948 1125.32 353.948 1125.75C354.297 1125.91 354.645 1126.07 355.005 1126.23C359.625 1128.76 363.596 1132.98 367.58 1136.45C367.944 1136.77 368.308 1137.09 368.683 1137.41C370.56 1139.05 372.423 1140.7 374.266 1142.37C374.628 1142.7 374.99 1143.02 375.363 1143.36C376.051 1143.97 376.733 1144.59 377.41 1145.22C378.84 1146.49 379.871 1147.27 381.756 1147.62C383.53 1147.25 384.321 1146.69 385.69 1145.49C388.557 1143.08 391.539 1140.9 394.587 1138.73C396.348 1137.47 397.949 1136.21 399.438 1134.63C400.479 1133.73 401.531 1132.85 402.593 1131.97C403.413 1131.29 403.413 1131.29 404.25 1130.6C405.669 1129.55 405.669 1129.55 406.916 1129.55C406.916 1129.14 406.916 1128.72 406.916 1128.29C408.153 1127.43 409.401 1126.58 410.655 1125.75C411.488 1124.91 412.319 1124.06 413.147 1123.21C414.266 1122.25 415.396 1121.3 416.536 1120.36C417.113 1119.88 417.691 1119.4 418.286 1118.91C419.422 1117.98 420.562 1117.05 421.706 1116.13C423.111 1115.01 423.111 1115.01 424.247 1113.82C425.525 1112.52 426.834 1111.28 428.181 1110.05C428.606 1109.66 429.032 1109.27 429.471 1108.87C430.595 1107.99 430.595 1107.99 431.842 1107.99C432.047 1107.36 432.253 1106.73 432.465 1106.09C433.522 1105.12 434.619 1104.2 435.736 1103.31C437.596 1101.82 439.327 1100.37 440.984 1098.65C442.435 1097.21 442.435 1097.21 444.305 1096.57C444.51 1095.95 444.716 1095.32 444.928 1094.67C446.242 1093.49 446.242 1093.49 447.888 1092.21C450.177 1090.4 452.278 1088.57 454.275 1086.43C456.352 1084.31 458.429 1082.2 460.507 1080.08C461.181 1079.38 461.181 1079.38 461.87 1078.66C465.196 1075.35 468.68 1072.2 472.23 1069.14C474.024 1067.59 475.687 1065.94 477.332 1064.23C478.37 1063.17 479.408 1062.11 480.447 1061.05C481.49 1059.99 482.533 1058.92 483.575 1057.85C484.472 1056.93 485.369 1056.01 486.266 1055.1C486.876 1054.47 487.485 1053.85 488.094 1053.22C491.347 1049.88 494.611 1046.59 498.133 1043.55C499.586 1042.27 500.919 1040.89 502.257 1039.49C502.784 1038.97 503.311 1038.44 503.854 1037.9C505.37 1036.39 505.37 1036.39 506.503 1034.81C508.06 1032.91 509.788 1031.39 511.631 1029.78C513.686 1027.97 515.541 1026.09 517.213 1023.91C518.459 1022.37 518.459 1022.37 519.9 1021.22C521.82 1019.63 523.287 1017.84 524.849 1015.9C525.937 1014.75 525.937 1014.75 527.239 1014.12C528.768 1013.3 528.946 1012.52 529.676 1010.95C530.541 1009.98 531.441 1009.04 532.363 1008.13C532.865 1007.63 533.367 1007.13 533.885 1006.62C534.577 1005.94 534.577 1005.94 535.284 1005.24C535.85 1004.66 536.415 1004.09 536.998 1003.5C537.933 1002.54 538.881 1001.61 539.841 1000.68C541.34 999.085 542.666 997.457 544.008 995.726C545.766 993.461 547.553 991.371 549.617 989.384C552.014 987.009 554.233 984.514 556.432 981.951C557.849 980.356 559.338 978.852 560.833 977.333C561.957 976.11 563.074 974.883 564.183 973.646C564.484 973.311 564.785 972.976 565.095 972.631C567.068 970.43 569.008 968.204 570.923 965.951C572.313 964.344 573.741 962.774 575.166 961.199C577.472 958.63 579.625 956.005 581.665 953.214C582.736 951.844 583.91 950.652 585.136 949.426C588.07 946.164 590.803 942.736 593.541 939.305C595.253 937.194 597.007 935.123 598.768 933.054C601.563 929.762 604.233 926.394 606.849 922.954C608.947 920.212 611.136 917.564 613.373 914.938C615.571 912.354 617.713 909.77 619.689 907.005C621.007 905.173 622.37 903.377 623.732 901.579C624.004 901.22 624.276 900.861 624.555 900.491C626.396 898.061 628.245 895.638 630.098 893.217C635.225 886.498 640.283 879.745 645.12 872.807C646.566 870.742 648.038 868.716 649.593 866.734C651.91 863.753 653.991 860.615 656.092 857.475C658.215 854.308 660.401 851.2 662.628 848.108C664.856 844.995 666.792 841.786 668.638 838.43C669.049 838.43 669.461 838.43 669.884 838.43C670.051 837.946 670.218 837.462 670.391 836.964C671.106 835.315 671.734 834.56 673 833.356C673.128 860.144 673.227 886.932 673.286 913.72C673.293 916.884 673.301 920.047 673.308 923.211C673.31 924.156 673.31 924.156 673.313 925.119C673.337 935.313 673.381 945.506 673.433 955.7C673.485 966.162 673.516 976.624 673.528 987.086C673.535 993.54 673.56 999.994 673.605 1006.45C673.635 1010.88 673.644 1015.3 673.637 1019.73C673.633 1022.28 673.638 1024.84 673.669 1027.39C673.696 1029.73 673.697 1032.07 673.678 1034.41C673.675 1035.65 673.699 1036.9 673.724 1038.14C673.633 1044.22 671.539 1047.29 667.392 1051.54C666.818 1052.19 666.246 1052.85 665.678 1053.5C665.215 1054.01 664.753 1054.51 664.276 1055.03C661.682 1057.9 659.247 1060.86 656.864 1063.9C655.552 1065.49 655.552 1065.49 654.052 1067.01C651.862 1069.25 649.932 1071.68 647.976 1074.14C647.204 1075.08 646.395 1076 645.582 1076.91C645.17 1076.91 644.759 1076.91 644.335 1076.91C644.195 1077.26 644.054 1077.6 643.909 1077.96C642.842 1079.9 641.425 1081.41 639.934 1083.02C639.314 1083.69 638.694 1084.37 638.075 1085.05C637.765 1085.39 637.455 1085.72 637.136 1086.07C635.821 1087.51 634.527 1088.97 633.235 1090.43C632.787 1090.94 632.339 1091.44 631.877 1091.96C630.72 1093.29 629.599 1094.65 628.484 1096.02C627.957 1096.62 627.43 1097.22 626.887 1097.84C626.476 1097.84 626.065 1097.84 625.641 1097.84C625.499 1098.18 625.358 1098.52 625.212 1098.87C623.809 1101.46 622.063 1103.55 619.799 1105.37C616.861 1107.79 614.558 1110.85 612.165 1113.82C610.297 1116.07 608.396 1118.13 606.09 1119.92C604.221 1121.51 602.728 1123.27 601.148 1125.14C599.369 1127.23 597.522 1129.12 595.379 1130.82C593.782 1132.07 593.782 1132.07 592.497 1133.84C592.124 1134.31 591.752 1134.78 591.368 1135.26C590.956 1135.26 590.545 1135.26 590.121 1135.26C589.994 1135.6 589.868 1135.94 589.737 1136.28C588.501 1138.46 586.818 1140.05 585.058 1141.8C584.693 1142.17 584.328 1142.54 583.952 1142.92C581.674 1145.2 579.327 1147.36 576.892 1149.46C575.257 1150.98 573.85 1152.67 572.418 1154.38C570.223 1156.99 567.817 1159.13 565.195 1161.27C563.802 1162.65 562.44 1164.06 561.096 1165.49C560.2 1166.43 559.272 1167.34 558.341 1168.24C557.93 1168.24 557.518 1168.24 557.094 1168.24C556.86 1168.8 556.86 1168.8 556.62 1169.38C555.752 1170.96 554.838 1171.81 553.472 1172.96C552.023 1174.21 550.649 1175.44 549.305 1176.81C547.993 1178.14 546.657 1179.38 545.255 1180.61C543.301 1182.34 541.454 1184.12 539.646 1186C530.541 1195.45 530.541 1195.45 527.702 1196.79C526.34 1197.37 526.34 1197.37 525.937 1199.32C524.88 1200.29 523.783 1201.21 522.666 1202.1C520.273 1204.01 518.099 1205.99 515.967 1208.2C515.157 1208.95 514.34 1209.69 513.513 1210.42C513.086 1210.8 512.658 1211.18 512.218 1211.57C511.153 1212.49 510.078 1213.4 508.995 1214.31C507.246 1215.77 507.246 1215.77 505.763 1217.32C504.082 1219.03 502.329 1220.61 500.532 1222.19C499.037 1223.52 497.571 1224.88 496.104 1226.24C493.509 1228.63 490.829 1230.87 488.066 1233.05C486.679 1234.21 485.443 1235.44 484.186 1236.74C483.506 1237.36 482.818 1237.97 482.122 1238.57C480.44 1240.02 480.44 1240.02 478.77 1241.48C476.756 1243.27 474.701 1244.96 472.58 1246.61C471.027 1247.83 469.646 1249.01 468.257 1250.42C466.588 1252.12 464.8 1253.47 462.902 1254.88C461.562 1255.92 460.43 1257.08 459.26 1258.31C455.639 1261.62 451.821 1264.7 448.044 1267.82C447.486 1268.3 446.929 1268.77 446.354 1269.26C444.928 1270.36 444.928 1270.36 443.682 1270.36C443.476 1270.99 443.27 1271.62 443.058 1272.26C442.03 1272.91 440.99 1273.55 439.943 1274.17C439.098 1275 438.268 1275.84 437.45 1276.7C436.216 1277.78 434.973 1278.83 433.711 1279.87C433.189 1280.31 432.667 1280.75 432.129 1281.2C431.571 1281.67 431.014 1282.13 430.44 1282.61C429.644 1283.27 429.644 1283.27 428.833 1283.95C427.48 1284.95 427.48 1284.95 426.233 1284.95C426.028 1285.58 425.822 1286.2 425.61 1286.85C424.678 1287.69 424.678 1287.69 423.468 1288.56C419.723 1291.31 416.141 1294.26 412.583 1297.26C411.985 1297.76 411.387 1298.26 410.772 1298.78C410.228 1299.24 409.684 1299.71 409.124 1300.18C407.539 1301.44 407.539 1301.44 405.935 1302.4C404.332 1303.4 403.245 1304.52 401.931 1305.88C400.669 1306.9 399.402 1307.9 398.114 1308.89C394.99 1311.31 391.908 1313.77 388.859 1316.28C385.91 1318.65 383.986 1319.02 380.284 1318.97C376.483 1318.21 374.142 1315.47 371.396 1312.86C370.328 1312.01 369.251 1311.18 368.164 1310.36C366.774 1309.31 366.774 1309.31 365.788 1308.42C365.788 1308 365.788 1307.58 365.788 1307.15C365.364 1307.02 364.94 1306.89 364.503 1306.75C362.527 1305.81 361.228 1304.71 359.613 1303.24C356.34 1300.3 352.995 1297.3 349.314 1294.9C347.711 1293.82 346.578 1292.67 345.224 1291.29C340.885 1287.49 340.885 1287.49 336.227 1284.12C334.642 1283.05 333.453 1281.89 332.138 1280.51C331.521 1280.09 330.904 1279.67 330.269 1279.24C330.269 1278.82 330.269 1278.4 330.269 1277.97C329.857 1277.85 329.446 1277.74 329.022 1277.61C326.808 1276.53 325.296 1275.12 323.489 1273.45C322.21 1272.3 320.895 1271.27 319.519 1270.24C317.749 1268.91 316.222 1267.53 314.69 1265.92C312.683 1264.1 310.699 1262.37 308.458 1260.85C308.458 1260.43 308.458 1260.01 308.458 1259.58C307.793 1259.36 307.793 1259.36 307.115 1259.14C304.972 1258.14 303.618 1256.83 301.915 1255.18C299.825 1253.15 297.872 1251.53 295.372 1250.06C294.32 1249.02 293.283 1247.96 292.257 1246.89C290.621 1245.38 288.943 1243.92 287.271 1242.45C286.573 1241.84 285.876 1241.22 285.178 1240.6C282.763 1238.47 280.344 1236.34 277.924 1234.21C277.539 1233.87 277.154 1233.53 276.758 1233.18C272.504 1229.44 268.231 1225.75 263.842 1222.18C262.212 1220.77 260.731 1219.26 259.23 1217.72C258.485 1217.03 257.732 1216.36 256.971 1215.69C254.229 1213.28 251.562 1210.79 248.897 1208.29C247.388 1206.87 247.388 1206.87 245.52 1205.67C245.52 1205.25 245.52 1204.83 245.52 1204.4C245.159 1204.23 244.797 1204.07 244.425 1203.89C242.946 1203.08 241.856 1202.17 240.613 1201.03C239.116 1199.66 237.616 1198.32 236.056 1197.02C231.413 1193.03 231.413 1193.03 230.565 1190.44C229.745 1190 228.912 1189.58 228.072 1189.17C227.128 1188.4 226.207 1187.59 225.307 1186.76C224.815 1186.3 224.322 1185.85 223.815 1185.38C222.288 1183.93 220.823 1182.43 219.348 1180.93C218.626 1180.29 217.898 1179.66 217.167 1179.03C212.097 1174.64 212.097 1174.64 211.247 1172.05C210.426 1171.61 209.593 1171.19 208.755 1170.78C205.032 1167.69 201.639 1164.21 198.273 1160.72C196.557 1159.01 194.742 1157.44 192.884 1155.88C191.93 1154.93 191.93 1154.93 191.307 1153.02C190.952 1152.84 190.598 1152.66 190.233 1152.48C188.279 1151.48 186.926 1149.97 185.426 1148.38C185.136 1148.08 184.846 1147.78 184.548 1147.47C183.683 1146.58 182.821 1145.68 181.959 1144.78C180.242 1143.02 178.515 1141.27 176.784 1139.53C169.763 1132.45 169.763 1132.45 166.916 1129.01C165.921 1127.84 164.902 1126.72 163.859 1125.6C163.518 1125.24 163.177 1124.87 162.826 1124.49C162.144 1123.76 161.459 1123.03 160.771 1122.3C159.091 1120.49 158.233 1119.25 157.657 1116.87C157.271 1116.67 156.885 1116.48 156.488 1116.27C154.718 1115.37 154.25 1114.15 153.294 1112.43C152.883 1112.22 152.472 1112.01 152.048 1111.8C151.41 1110.75 150.79 1109.69 150.179 1108.62C149.359 1107.45 148.528 1106.29 147.686 1105.14C143.324 1099.15 143.324 1099.15 143.324 1097.21C142.913 1097.21 142.502 1097.21 142.078 1097.21C141.659 1096.39 141.245 1095.57 140.832 1094.75C140.6 1094.29 140.369 1093.84 140.13 1093.37C139.585 1092.13 139.585 1092.13 139.585 1090.87C139.174 1090.87 138.763 1090.87 138.339 1090.87C137.919 1090.06 137.505 1089.25 137.093 1088.45C136.861 1088 136.63 1087.55 136.392 1087.09C135.846 1085.79 135.846 1085.79 135.846 1083.89C135.435 1083.89 135.024 1083.89 134.6 1083.89C134.285 1083.08 133.974 1082.28 133.665 1081.47C133.492 1081.02 133.318 1080.57 133.14 1080.11C132.731 1078.81 132.731 1078.81 132.731 1076.91C132.319 1076.91 131.908 1076.91 131.484 1076.91C131.064 1075.7 130.65 1074.48 130.238 1073.26C130.007 1072.59 129.775 1071.91 129.537 1071.21C128.992 1069.3 128.992 1069.3 128.992 1066.76C128.58 1066.76 128.169 1066.76 127.745 1066.76C127.609 1066.05 127.609 1066.05 127.469 1065.33C127.057 1063.19 126.642 1061.05 126.226 1058.91C126.083 1058.17 125.94 1057.42 125.792 1056.65C125.653 1055.94 125.515 1055.23 125.372 1054.5C125.245 1053.84 125.118 1053.18 124.986 1052.51C124.698 1050.92 124.698 1050.92 124.007 1049.64C122.907 1039.73 122.682 1029.18 124.914 1019.43C125.254 1017.92 125.559 1016.41 125.854 1014.89C125.954 1014.38 126.054 1013.88 126.157 1013.36C126.36 1012.33 126.56 1011.3 126.756 1010.27C127.391 1007.1 128.3 1004.38 129.615 1001.43C129.92 1000.45 130.208 999.459 130.472 998.462C131.544 994.673 133.057 991.093 134.6 987.481C135.011 987.481 135.423 987.481 135.846 987.481C135.911 987.049 135.975 986.618 136.041 986.173C136.561 983.911 137.401 981.987 138.339 979.87C138.75 979.87 139.161 979.87 139.585 979.87C139.649 979.53 139.714 979.19 139.78 978.839C140.89 974.937 143.227 971.646 145.369 968.265C146.628 966.249 147.793 964.199 148.932 962.111C149.344 962.111 149.755 962.111 150.179 962.111C150.294 961.692 150.41 961.274 150.529 960.842C151.822 958.097 153.759 956.078 155.787 953.865C156.263 953.342 156.738 952.819 157.228 952.28C158.28 951.328 158.28 951.328 159.526 951.328C159.732 950.7 159.937 950.073 160.149 949.426C160.994 948.558 160.994 948.558 162.135 947.602C164.659 945.427 167.082 943.162 169.496 940.863C172.235 938.26 174.995 935.695 177.838 933.21C178.818 932.324 179.727 931.399 180.635 930.437C181.959 929.129 181.959 929.129 183.206 929.129C183.365 928.754 183.524 928.379 183.688 927.992C184.53 926.449 185.384 925.619 186.711 924.491C187.153 924.11 187.596 923.728 188.052 923.334C188.509 922.944 188.966 922.554 189.437 922.153C191.686 920.182 193.92 918.224 196.019 916.087C197.22 914.865 198.424 913.752 199.719 912.639C201.942 910.723 203.983 908.666 205.994 906.522C206.893 905.579 207.822 904.666 208.755 903.759C209.166 903.759 209.577 903.759 210.001 903.759C210.207 903.131 210.412 902.503 210.624 901.856C211.688 900.744 211.688 900.744 213 899.597C213.642 899.026 213.642 899.026 214.297 898.445C215.609 897.416 215.609 897.416 216.98 896.765C218.324 896.194 218.324 896.194 218.725 894.245C219.657 893.289 219.657 893.289 220.867 892.263C223.444 890.041 225.951 887.751 228.45 885.437C229.948 884.092 231.497 882.83 233.057 881.56C234.59 880.039 236.083 878.484 237.575 876.922C239.514 874.994 241.535 873.181 243.568 871.357C244.585 870.429 245.567 869.461 246.533 868.478C248.063 866.921 249.672 865.518 251.323 864.098C252.227 863.297 253.086 862.443 253.933 861.581C255.148 860.344 256.362 859.218 257.672 858.092C258.966 856.979 260.17 855.866 261.372 854.644C263.099 852.886 264.917 851.277 266.763 849.651C267.723 848.786 268.644 847.876 269.551 846.953C271.095 845.381 272.716 843.965 274.382 842.531C275.272 841.743 276.117 840.904 276.95 840.056C278.276 838.706 279.623 837.458 281.04 836.211C283.593 833.958 285.951 831.562 288.284 829.075C289.764 827.648 289.764 827.648 291.633 827.014C292.061 826.174 292.475 825.328 292.88 824.477C293.917 823.414 293.917 823.414 295.139 822.376C295.802 821.803 295.802 821.803 296.48 821.219C297.165 820.634 297.165 820.634 297.865 820.037C300.114 818.067 302.348 816.108 304.447 813.972C305.991 812.4 307.612 810.983 309.279 809.549C310.168 808.762 311.013 807.923 311.847 807.074C313.574 805.316 315.392 803.708 317.238 802.082C318.198 801.217 319.119 800.307 320.026 799.384C321.57 797.812 323.191 796.395 324.857 794.962C325.747 794.174 326.592 793.335 327.425 792.486C328.751 791.137 330.098 789.889 331.515 788.641C334.068 786.389 336.426 783.993 338.759 781.506C340.239 780.079 340.239 780.079 342.108 779.445C342.314 778.817 342.52 778.189 342.732 777.542C343.704 776.556 343.704 776.556 344.944 775.508C348.108 772.776 351.104 769.883 354.113 766.976C356.277 764.896 358.461 762.925 360.803 761.051C361.343 760.489 361.882 759.926 362.439 759.346C363.919 757.88 363.919 757.88 365.788 757.246C366.215 756.406 366.629 755.559 367.034 754.708C368.093 753.623 368.093 753.623 369.332 752.568C369.776 752.185 370.219 751.803 370.676 751.408C371.341 750.844 371.341 750.844 372.019 750.269C374.038 748.534 376.032 746.819 377.9 744.917C379.212 743.582 380.54 742.372 381.951 741.151C383.619 739.692 385.052 738.218 386.43 736.474C391.186 730.742 397.437 732.579 403.8 734.412Z" fill="#464646"/>
<path d="M672.377 270.136C673.539 271.318 673.076 273.013 673.08 274.587C673.079 275.14 673.077 275.694 673.075 276.264C673.075 276.847 673.076 277.431 673.077 278.032C673.078 280.002 673.074 281.972 673.071 283.942C673.071 285.348 673.071 286.754 673.071 288.16C673.071 291.991 673.068 295.821 673.063 299.651C673.059 303.649 673.059 307.647 673.058 311.645C673.056 318.36 673.053 325.075 673.047 331.789C673.041 338.707 673.037 345.624 673.034 352.541C673.034 352.967 673.034 353.394 673.034 353.833C673.033 355.97 673.032 358.108 673.031 360.245C673.025 377.989 673.014 395.734 673 413.478C672.553 413.494 672.107 413.51 671.647 413.526C669.631 413.6 667.616 413.677 665.6 413.755C664.897 413.78 664.194 413.805 663.47 413.831C662.464 413.871 662.464 413.871 661.438 413.912C660.818 413.935 660.198 413.958 659.559 413.982C658.04 414.017 658.04 414.017 656.798 414.746C655.66 414.916 654.517 415.056 653.373 415.18C652.329 415.297 652.329 415.297 651.264 415.417C649.808 415.575 648.353 415.734 646.897 415.892C640.922 416.563 635.153 417.464 629.38 419.186C628.056 419.495 626.732 419.798 625.407 420.098C622.509 420.768 619.719 421.556 616.914 422.551C614.137 423.535 611.765 424.26 608.816 424.26C608.816 424.679 608.816 425.098 608.816 425.529C607.866 425.817 607.866 425.817 606.898 426.111C602.085 427.595 597.434 429.191 592.835 431.289C591.368 431.871 591.368 431.871 589.498 431.871C589.498 432.29 589.498 432.709 589.498 433.14C588.919 433.326 588.919 433.326 588.327 433.517C583.885 435.043 579.861 437.11 575.765 439.393C573.301 440.764 570.792 442.029 568.272 443.288C563.193 445.84 558.293 448.662 553.426 451.611C550.376 453.436 550.376 453.436 548.994 453.436C548.994 453.855 548.994 454.273 548.994 454.705C548.19 455.131 547.385 455.553 546.579 455.973C546.131 456.209 545.682 456.444 545.221 456.687C544.008 457.242 544.008 457.242 542.762 457.242C542.762 457.66 542.762 458.079 542.762 458.51C538.556 461.047 538.556 461.047 537.154 461.047C537.154 461.466 537.154 461.885 537.154 462.316C536.26 463 536.26 463 535.012 463.743C533.071 464.928 531.167 466.146 529.286 467.43C528.821 467.746 528.356 468.062 527.877 468.388C527.054 468.953 526.234 469.522 525.419 470.098C522.947 471.83 522.947 471.83 521.575 471.83C521.575 472.248 521.575 472.667 521.575 473.098C518.203 475.635 518.203 475.635 516.59 475.635C516.59 476.054 516.59 476.472 516.59 476.904C513.858 478.807 513.858 478.807 512.228 478.807C512.022 479.434 511.816 480.062 511.605 480.709C508.904 482.612 508.904 482.612 507.243 482.612C507.037 483.24 506.831 483.868 506.619 484.515C505.595 485.173 504.555 485.806 503.504 486.418C502.874 487.045 502.251 487.68 501.634 488.32C500.253 489.442 498.865 490.551 497.467 491.65C494.191 494.247 491.016 496.914 487.925 499.737C484.78 502.536 481.55 505.22 478.298 507.888C476.698 509.214 476.698 509.214 475.333 510.693C474.216 511.788 474.216 511.788 472.969 511.788C472.764 512.416 472.558 513.044 472.346 513.691C470.2 515.593 470.2 515.593 468.607 515.593C468.453 515.963 468.299 516.333 468.14 516.713C467.246 518.341 466.254 519.296 464.869 520.509C464.432 520.898 463.995 521.287 463.544 521.688C462.376 522.57 462.376 522.57 461.13 522.57C460.971 522.946 460.812 523.321 460.648 523.707C459.805 525.251 458.952 526.081 457.624 527.208C457.182 527.59 456.739 527.972 456.283 528.365C455.826 528.755 455.369 529.145 454.898 529.547C452.1 531.998 449.374 534.464 446.797 537.158C440.566 543.501 440.566 543.501 438.969 545.086C437.437 546.627 437.437 546.627 436.204 548.297C434.957 549.843 434.957 549.843 433.516 550.993C431.615 552.569 430.128 554.323 428.536 556.213C426.309 558.83 423.896 561.007 421.248 563.163C420.197 564.206 419.158 565.264 418.132 566.334C417.618 566.844 417.104 567.354 416.575 567.88C415.409 569.096 414.38 570.287 413.342 571.606C412.866 572.169 412.391 572.731 411.901 573.311C411.49 573.311 411.078 573.311 410.655 573.311C410.513 573.651 410.372 573.991 410.226 574.342C408.444 577.624 405.795 580.226 403.177 582.825C402.701 583.309 402.226 583.793 401.736 584.291C401.183 584.854 400.631 585.417 400.061 585.996C399.688 586.383 399.316 586.77 398.932 587.168C396.446 589.732 393.895 592.158 391.213 594.507C390.288 595.334 389.404 596.209 388.533 597.096C387.22 598.431 385.884 599.666 384.482 600.901C382.529 602.624 380.678 604.406 378.874 606.292C376.667 608.599 374.357 610.721 371.968 612.828C370.465 614.181 369.057 615.612 367.657 617.075C366.619 618.132 365.58 619.189 364.542 620.246C364.004 620.8 363.467 621.355 362.913 621.926C359.983 624.938 357.045 627.895 353.856 630.627C352.365 631.965 350.982 633.394 349.586 634.834C341.896 642.763 341.896 642.763 338.255 645.871C336.77 647.2 335.397 648.625 334.007 650.056C327.153 657.033 327.153 657.033 325.466 658.747C324.529 659.702 323.598 660.664 322.674 661.631C321.15 663.148 319.593 664.591 318 666.031C315.21 668.567 312.573 671.224 309.946 673.932C308.214 675.672 306.405 677.291 304.559 678.902C303.085 680.21 301.721 681.612 300.357 683.037C297.242 686.209 294.126 689.38 291.01 692.551C290.683 692.891 290.356 693.232 290.019 693.582C287.707 695.973 285.309 698.208 282.814 700.4C281.323 701.735 279.932 703.154 278.547 704.602C275.431 707.774 275.431 707.774 274.119 709.106C272.653 710.599 271.193 712.097 269.733 713.596C268.764 714.589 267.794 715.581 266.824 716.574C266.345 717.067 265.866 717.56 265.372 718.068C262.721 720.778 260.024 723.386 257.167 725.871C255.702 727.165 254.351 728.559 252.998 729.973C249.882 733.144 249.882 733.144 248.57 734.477C247.104 735.969 245.644 737.467 244.184 738.966C243.214 739.959 242.245 740.952 241.275 741.944C240.796 742.437 240.317 742.93 239.823 743.438C237.184 746.135 234.493 748.714 231.659 751.198C230.183 752.512 228.818 753.914 227.449 755.343C225.622 757.222 223.789 759.097 221.958 760.972C221.478 761.465 220.999 761.958 220.506 762.466C217.869 765.16 215.182 767.738 212.35 770.217C210.872 771.533 209.5 772.938 208.131 774.371C201.519 781.192 201.519 781.192 198.628 783.686C196.542 785.495 194.813 787.48 193.044 789.605C191.519 791.324 189.828 792.795 188.096 794.293C186.593 795.609 185.212 797.027 183.829 798.472C182.79 799.529 181.752 800.587 180.713 801.644C180.263 802.115 179.813 802.586 179.35 803.071C177.713 804.7 176.051 806.291 174.365 807.867C173.829 808.368 173.293 808.87 172.741 809.386C171.366 810.523 171.366 810.523 170.119 810.523C169.963 810.897 169.806 811.271 169.645 811.656C168.777 813.236 167.863 814.09 166.497 815.241C165.063 816.475 163.699 817.693 162.369 819.046C160.514 820.934 158.561 822.682 156.585 824.437C154.494 826.362 152.535 828.414 150.556 830.458C147.422 833.684 144.225 836.759 140.831 839.699C137.466 842.65 137.466 842.65 134.249 845.764C133.048 846.987 131.844 848.099 130.55 849.213C128.161 851.271 125.994 853.512 123.812 855.793C122.046 857.549 120.205 859.184 118.34 860.828C117.394 861.68 116.487 862.575 115.594 863.484C113.88 865.228 112.073 866.823 110.241 868.436C109.281 869.302 108.361 870.212 107.454 871.135C105.942 872.674 104.366 874.066 102.722 875.455C101.234 876.791 99.8592 878.228 98.4574 879.657C97.1581 880.913 95.8423 882.149 94.5238 883.384C94.1679 883.717 93.8121 884.051 93.4454 884.394C90.7916 886.876 88.1281 889.345 85.3713 891.708C84.9038 892.117 84.4363 892.526 83.9546 892.947C82.0162 894.428 79.9829 895.542 77.8156 896.624C77.4292 896.824 77.0429 897.024 76.6448 897.231C74.8618 898.132 73.6796 898.685 71.662 898.685C71.662 899.104 71.662 899.522 71.662 899.954C56.9686 904.992 56.9686 904.992 49.8519 905.662C49.2293 905.731 48.6068 905.799 47.9654 905.87C36.2634 907.035 22.7127 906.797 11.8398 901.856C10.3544 901.414 8.86581 901.001 7.36581 900.613C4.77865 899.642 2.41018 898.145 0 896.782C0 811.386 0 725.989 0 638.005C1.06598 640.175 1.61333 641.824 2.14207 644.15C2.814 646.985 3.58785 649.727 4.52513 652.482C4.98832 653.871 5.39991 655.268 5.80307 656.676C6.70331 659.763 7.68679 662.818 8.68513 665.873C8.84694 666.368 9.00875 666.863 9.17546 667.373C10.2667 670.687 11.4231 673.969 12.6723 677.225C13.0861 678.598 13.0861 678.598 13.0861 681.135C13.4974 681.135 13.9087 681.135 14.3324 681.135C14.5284 681.748 14.7244 682.361 14.9263 682.993C17.0408 689.561 19.3925 695.906 22.28 702.169C22.8855 703.572 23.4171 704.955 23.9279 706.394C24.9151 709.113 26.153 711.661 27.4575 714.235C31.1574 721.58 31.1574 721.58 31.1574 724.264C31.5687 724.264 31.98 724.264 32.4037 724.264C32.676 724.841 32.676 724.841 32.9538 725.429C34.8626 729.4 36.9723 733.191 39.2583 736.949C40.9799 736.618 42.5773 736.246 44.2435 735.681C44.4492 735.053 44.6548 734.425 44.8667 733.778C46.1811 732.594 46.1811 732.594 47.8266 731.32C50.1155 729.508 52.2173 727.681 54.2139 725.533C54.7408 725.009 55.2678 724.486 55.8107 723.947C57.3262 722.429 57.3262 722.429 58.4591 720.855C59.9903 718.985 61.6753 717.486 63.5003 715.92C65.045 714.538 66.4736 713.064 67.9231 711.579C68.4668 711.022 69.0105 710.466 69.5706 709.892C70.1491 709.299 70.7276 708.706 71.3237 708.096C72.3069 707.09 73.2904 706.085 74.2741 705.08C74.9446 704.394 75.6146 703.708 76.2841 703.021C79.7234 699.493 83.1571 695.99 86.8844 692.773C88.7357 691.155 90.4062 689.354 92.0945 687.564C92.4849 687.156 92.8753 686.748 93.2775 686.328C93.6398 685.944 94.002 685.561 94.3753 685.166C95.3417 684.306 95.3417 684.306 96.588 684.306C96.7309 683.946 96.8739 683.586 97.0212 683.216C98.0475 681.39 99.3119 680.291 100.872 678.915C102.447 677.517 103.985 676.147 105.434 674.614C106.558 673.524 106.558 673.524 107.805 673.524C107.955 673.157 108.105 672.789 108.26 672.411C109.201 670.716 110.282 669.747 111.738 668.489C113.31 667.108 114.826 665.743 116.295 664.248C117.482 663.039 118.676 661.94 119.956 660.838C122.345 658.781 124.512 656.539 126.694 654.258C128.46 652.503 130.3 650.867 132.166 649.224C133.111 648.372 134.019 647.476 134.912 646.568C136.224 645.232 137.56 643.997 138.962 642.762C140.916 641.037 142.762 639.256 144.57 637.371C147.572 634.257 150.596 631.221 153.849 628.38C155.9 626.575 157.898 624.711 159.903 622.855C161.401 621.509 162.951 620.248 164.511 618.977C164.987 618.493 165.462 618.009 165.952 617.511C167.305 616.133 168.674 614.859 170.119 613.586C171.536 612.339 172.883 611.091 174.209 609.741C175.753 608.169 177.374 606.752 179.041 605.319C179.93 604.531 180.775 603.692 181.609 602.844C183.305 601.117 185.083 599.533 186.905 597.948C188.433 596.558 189.86 595.084 191.306 593.607C192.683 592.259 194.076 590.929 195.474 589.603C196.017 589.08 196.017 589.08 196.57 588.547C199.263 585.996 199.263 585.996 200.654 585.996C200.797 585.629 200.941 585.262 201.089 584.884C202.103 583.101 203.289 582.202 204.899 580.962C207.18 579.162 209.232 577.32 211.247 575.214C212.307 574.274 213.379 573.352 214.46 572.439C215.949 571.104 217.323 569.666 218.725 568.237C220.207 566.798 221.705 565.376 223.204 563.956C223.617 563.564 224.03 563.173 224.455 562.77C229.078 558.398 233.669 554.088 238.693 550.193C240.264 548.925 241.63 547.498 243.028 546.038C243.749 545.397 244.477 544.763 245.209 544.135C246.503 543.021 247.707 541.909 248.909 540.686C250.636 538.928 252.454 537.32 254.3 535.694C255.26 534.829 256.181 533.919 257.088 532.996C258.6 531.457 260.176 530.064 261.82 528.675C263.308 527.34 264.683 525.902 266.084 524.473C267.286 523.329 268.491 522.192 269.706 521.064C270.194 520.611 270.194 520.611 270.692 520.149C271.648 519.264 272.605 518.38 273.562 517.496C274.074 517.021 274.585 516.546 275.113 516.057C275.552 515.655 275.991 515.254 276.444 514.84C276.825 514.491 277.206 514.142 277.598 513.782C278.547 513.056 278.547 513.056 279.794 513.056C279.952 512.682 280.11 512.308 280.273 511.922C281.124 510.365 282 509.518 283.338 508.379C284.003 507.805 284.003 507.805 284.681 507.219C285.125 506.843 285.568 506.467 286.025 506.08C288.043 504.345 290.037 502.63 291.906 500.728C293.629 498.974 295.441 497.369 297.285 495.751C298.333 494.803 299.311 493.829 300.28 492.8C301.604 491.492 301.604 491.492 302.85 491.492C303.056 490.864 303.261 490.236 303.473 489.589C304.318 488.722 304.318 488.722 305.459 487.765C307.983 485.59 310.406 483.325 312.82 481.026C316.517 477.517 320.246 474.065 324.154 470.799C326.399 468.869 328.415 466.756 330.463 464.615C332.229 462.86 334.07 461.224 335.935 459.581C336.881 458.729 337.788 457.833 338.681 456.925C339.993 455.589 341.33 454.354 342.731 453.119C345.041 451.081 347.204 448.938 349.316 446.687C350.215 445.744 351.145 444.831 352.079 443.922C352.49 443.922 352.901 443.922 353.325 443.922C353.531 443.294 353.736 442.667 353.948 442.02C354.793 441.152 354.793 441.152 355.934 440.196C357.722 438.661 359.46 437.09 361.161 435.456C361.55 435.082 361.94 434.708 362.342 434.323C363.129 433.565 363.915 432.804 364.698 432.041C367.52 429.334 367.52 429.334 368.904 429.334C369.119 428.784 369.119 428.784 369.339 428.222C370.353 426.44 371.539 425.541 373.149 424.3C375.43 422.501 377.482 420.658 379.497 418.552C380.557 417.612 381.629 416.691 382.71 415.777C384.199 414.442 385.573 413.004 386.975 411.575C388.177 410.431 389.382 409.294 390.597 408.166C390.922 407.864 391.247 407.562 391.583 407.251C392.538 406.366 393.495 405.482 394.453 404.598C394.964 404.123 395.476 403.648 396.003 403.159C396.443 402.757 396.882 402.356 397.335 401.942C397.716 401.593 398.096 401.244 398.489 400.884C399.438 400.159 399.438 400.159 400.684 400.159C400.89 399.531 401.096 398.903 401.307 398.256C403.454 396.353 403.454 396.353 405.046 396.353C405.252 395.725 405.458 395.097 405.669 394.45C407.816 392.547 407.816 392.547 409.408 392.547C409.614 391.92 409.82 391.292 410.031 390.645C411.329 389.433 411.329 389.433 413.03 388.068C413.651 387.564 414.272 387.059 414.912 386.539C415.238 386.276 415.564 386.013 415.899 385.741C417.494 384.44 419.058 383.101 420.625 381.765C426.18 377.046 431.784 372.392 437.45 367.811C438.238 367.166 438.238 367.166 439.042 366.508C439.545 366.101 440.048 365.694 440.566 365.274C441.016 364.908 441.465 364.542 441.929 364.164C443.058 363.372 443.058 363.372 444.305 363.372C444.305 362.953 444.305 362.534 444.305 362.103C445.286 361.214 445.286 361.214 446.602 360.24C447.058 359.902 447.513 359.565 447.983 359.217C448.964 358.527 449.977 357.884 451.003 357.267C452.47 356.437 452.47 356.437 453.652 355.087C455.028 353.73 456.211 353.201 458.014 352.589C458.014 352.171 458.014 351.752 458.014 351.321C458.956 350.565 458.956 350.565 460.312 349.695C462.15 348.494 463.969 347.278 465.755 345.996C466.117 345.736 466.48 345.477 466.853 345.209C467.576 344.689 468.297 344.167 469.017 343.644C471.586 341.807 471.586 341.807 472.969 341.807C472.969 341.388 472.969 340.97 472.969 340.538C473.865 339.812 473.865 339.812 475.107 339.027C475.551 338.745 475.995 338.463 476.453 338.172C476.923 337.88 477.393 337.588 477.877 337.288C478.574 336.843 478.574 336.843 479.286 336.388C482.772 334.196 482.772 334.196 484.186 334.196C484.186 333.777 484.186 333.359 484.186 332.927C485.123 332.199 485.123 332.199 486.406 331.421C486.858 331.145 487.311 330.87 487.777 330.586C488.237 330.312 488.697 330.038 489.171 329.756C489.587 329.502 490.002 329.247 490.43 328.985C493.364 327.219 493.364 327.219 494.78 327.219C494.78 326.8 494.78 326.382 494.78 325.95C496.11 325.198 497.44 324.446 498.772 323.696C499.839 323.09 500.904 322.479 501.965 321.862C502.46 321.576 502.955 321.29 503.465 320.995C503.92 320.73 504.376 320.464 504.845 320.19C505.996 319.608 505.996 319.608 507.243 319.608C507.243 319.189 507.243 318.771 507.243 318.339C507.642 318.14 508.041 317.94 508.452 317.735C510.989 316.457 513.499 315.182 515.928 313.701C517.836 312.631 517.836 312.631 519.706 312.631C519.706 312.212 519.706 311.794 519.706 311.362C520.613 310.937 521.522 310.515 522.432 310.094C522.938 309.859 523.444 309.623 523.965 309.38C525.314 308.825 525.314 308.825 526.56 308.825C526.56 308.407 526.56 307.988 526.56 307.557C527.042 307.357 527.524 307.158 528.021 306.952C531.323 305.571 534.573 304.163 537.748 302.5C539.834 301.435 541.964 300.471 544.094 299.5C545.283 298.952 546.466 298.39 547.643 297.815C551.199 296.094 554.462 294.95 558.341 294.238C558.341 293.819 558.341 293.4 558.341 292.969C559.266 292.659 559.266 292.659 560.21 292.342C565.323 290.641 565.323 290.641 570.375 288.767C572.639 287.908 574.907 287.198 577.23 286.527C578.605 286.088 579.931 285.604 581.276 285.08C583.804 284.104 586.358 283.277 588.953 282.504C589.408 282.367 589.864 282.231 590.333 282.09C593.961 281.025 597.599 280.181 601.306 279.444C603.191 279.061 603.191 279.061 604.882 278.411C607.868 277.45 610.913 276.973 613.996 276.439C615.24 276.222 616.484 276.003 617.727 275.782C618.275 275.687 618.822 275.592 619.386 275.495C620.646 275.334 620.646 275.334 621.279 274.576C622.668 274.347 624.064 274.156 625.461 273.981C625.886 273.927 626.312 273.873 626.75 273.818C627.656 273.703 628.562 273.59 629.469 273.479C630.833 273.31 632.196 273.138 633.559 272.965C637.973 272.41 642.381 271.897 646.817 271.56C648.116 271.472 648.116 271.472 649.32 270.77C650.354 270.673 651.391 270.612 652.429 270.569C653.059 270.543 653.689 270.516 654.338 270.488C655.344 270.451 655.344 270.451 656.37 270.413C657.046 270.387 657.723 270.36 658.419 270.333C669.2 269.931 669.2 269.931 672.377 270.136Z" fill="#474747"/>
<path d="M350.844 5.85023C352.503 6.43372 354.186 6.8377 355.895 7.23596C358.729 7.9352 361.25 8.8829 363.918 10.0901C365.983 10.7699 368.062 11.3901 370.15 11.9929C370.15 12.4115 370.15 12.8301 370.15 13.2614C370.548 13.3137 370.947 13.3661 371.357 13.42C374.025 14.085 376.389 15.2586 378.874 16.4327C380.133 17.0147 381.392 17.5961 382.652 18.1769C383.678 18.6524 384.703 19.128 385.729 19.604C385.729 20.0226 385.729 20.4412 385.729 20.8725C386.531 21.1178 386.531 21.1178 387.35 21.368C389.547 22.1699 391.425 23.1659 393.44 24.3609C394.1 24.7468 394.761 25.1327 395.441 25.5303C395.937 25.877 396.434 26.2237 396.945 26.5808C396.945 26.9994 396.945 27.418 396.945 27.8493C397.408 28.0325 397.871 28.2156 398.347 28.4043C402.191 30.0046 402.191 30.0046 403.352 31.2263C404.716 32.5801 406.215 33.6307 407.773 34.7469C410.219 36.5339 412.336 38.31 414.393 40.5345C415.01 40.9531 415.627 41.3717 416.263 41.803C416.263 42.2216 416.263 42.6402 416.263 43.0715C416.633 43.2419 417.003 43.4123 417.384 43.5878C418.762 44.3434 419.657 45.1025 420.754 46.2279C421.117 46.5986 421.481 46.9692 421.855 47.3511C422.233 47.7441 422.611 48.1371 423.001 48.542C423.391 48.9444 423.782 49.3468 424.184 49.7614C428.154 53.8774 431.788 58.1465 435.237 62.7236C435.959 63.678 436.7 64.6171 437.45 65.548C446.73 77.65 453.379 92.1864 458.637 106.497C458.783 106.888 458.93 107.28 459.081 107.683C460.796 112.281 462.299 116.946 463.801 121.62C464.176 122.774 464.563 123.923 464.954 125.072C466.584 130.049 467.505 135.092 468.362 140.255C468.764 142.668 469.171 144.986 469.863 147.333C475.587 168.74 473.501 195.138 470.477 216.858C470.38 217.656 470.282 218.454 470.182 219.276C469.821 221.498 469.228 223.577 468.607 225.738C468.069 228.106 467.586 230.486 467.104 232.867C466.516 235.659 465.769 238.27 464.742 240.927C464.21 242.32 463.732 243.726 463.262 245.142C459.519 256.354 454.878 266.728 449.29 277.113C449.064 277.533 448.838 277.953 448.606 278.386C446.068 283.072 446.068 283.072 444.928 284.724C444.516 284.724 444.105 284.724 443.681 284.724C443.532 285.169 443.383 285.615 443.229 286.074C442.302 288.201 441.108 289.823 439.709 291.661C438.224 293.62 436.779 295.56 435.478 297.649C435.101 298.198 434.723 298.746 434.334 299.312C433.923 299.312 433.512 299.312 433.088 299.312C432.972 299.743 432.857 300.175 432.737 300.62C431.689 302.8 430.394 304.06 428.684 305.721C427.459 306.943 426.339 308.216 425.221 309.539C423.548 311.505 421.889 313.412 420.002 315.168C419.591 315.168 419.179 315.168 418.755 315.168C418.55 315.796 418.344 316.424 418.132 317.071C416.881 318.176 415.639 319.195 414.316 320.202C413.969 320.475 413.622 320.748 413.264 321.029C406.895 325.95 406.895 325.95 404.423 325.95C404.423 326.369 404.423 326.788 404.423 327.219C403.165 327.724 401.905 328.225 400.645 328.725C399.944 329.005 399.243 329.285 398.52 329.573C390.592 332.522 383.339 332.811 375.576 329.352C373.605 328.342 371.909 327.305 370.15 325.95C369.546 325.584 368.942 325.218 368.319 324.841C365.819 322.971 364.006 320.774 362.049 318.339C361.621 317.817 361.193 317.294 360.752 316.756C354.571 309.088 354.571 309.088 354.571 306.288C354.16 306.288 353.749 306.288 353.325 306.288C352.907 305.365 352.492 304.44 352.079 303.514C351.847 302.998 351.616 302.483 351.378 301.953C350.832 300.58 350.832 300.58 350.832 299.312C350.421 299.312 350.01 299.312 349.586 299.312C349.271 298.507 348.96 297.701 348.651 296.894C348.391 296.22 348.391 296.22 348.126 295.533C347.717 294.238 347.717 294.238 347.717 292.335C347.305 292.335 346.894 292.335 346.47 292.335C346.267 291.753 346.064 291.171 345.854 290.571C344.17 285.732 344.17 285.732 342.42 280.918C340.36 275.356 338.345 269.819 336.921 264.048C336.533 262.519 336.533 262.519 335.904 261.1C334.823 258.196 334.315 255.154 333.696 252.119C333.155 249.54 332.511 247.207 331.515 244.765C331.153 243.371 330.817 241.97 330.502 240.563C330.34 239.849 330.178 239.134 330.01 238.398C329.645 236.52 329.645 236.52 329.645 234.617C329.234 234.617 328.823 234.617 328.399 234.617C328.113 234.02 327.827 233.424 327.532 232.809C327.146 232.011 326.76 231.213 326.374 230.415C326.187 230.024 325.999 229.632 325.807 229.229C322.546 222.52 317.978 216.336 312.976 210.87C312.197 209.881 312.197 209.881 312.197 208.613C311.799 208.443 311.4 208.273 310.99 208.097C309.705 207.344 309.705 207.344 309.081 205.441C307.621 204.731 307.621 204.731 305.966 204.173C305.13 203.759 304.298 203.34 303.473 202.904C303.473 202.486 303.473 202.067 303.473 201.636C300.697 200.694 300.697 200.694 297.865 199.733C297.865 199.315 297.865 198.896 297.865 198.465C297.094 198.229 296.322 197.994 295.528 197.751C292.322 196.674 289.391 195.165 286.4 193.584C284.772 192.704 284.772 192.704 282.909 192.122C282.909 191.703 282.909 191.285 282.909 190.854C282.511 190.801 282.112 190.749 281.702 190.695C279.582 190.167 277.77 189.347 275.792 188.423C274.062 187.625 272.317 186.877 270.563 186.136C269.617 185.736 269.617 185.736 268.652 185.329C267.35 184.781 266.047 184.236 264.743 183.693C264.106 183.427 263.469 183.16 262.813 182.886C262.244 182.649 261.675 182.413 261.089 182.17C259.198 181.326 257.368 180.398 255.527 179.449C254.321 178.841 253.107 178.27 251.878 177.713C245.14 174.637 238.859 170.969 232.59 167.004C231.656 166.413 230.719 165.828 229.779 165.249C229.339 164.975 228.898 164.702 228.445 164.42C228.057 164.181 227.669 163.942 227.269 163.696C226.15 162.909 225.276 162.037 224.333 161.043C223.248 160.152 222.157 159.267 221.062 158.387C218.071 155.915 215.499 153.339 213.117 150.261C212.77 149.82 212.423 149.38 212.065 148.926C211.247 147.724 211.247 147.724 211.247 146.456C210.63 146.246 210.013 146.037 209.378 145.821C208.263 144.206 208.263 144.206 207.119 142.174C206.738 141.51 206.357 140.847 205.965 140.162C205.105 138.394 204.654 136.98 204.393 135.039C203.981 135.039 203.57 135.039 203.146 135.039C202.936 134.389 202.725 133.739 202.508 133.069C202.228 132.206 201.947 131.343 201.666 130.48C201.528 130.053 201.39 129.626 201.248 129.186C200.672 127.421 200.097 125.68 199.368 123.974C193.135 106.685 197.664 85.8169 203.146 69.0761C203.558 69.0761 203.969 69.0761 204.393 69.0761C204.457 68.5267 204.521 67.9772 204.587 67.4112C205.053 65.0865 205.765 63.5484 206.885 61.465C207.149 60.9548 207.414 60.4446 207.686 59.919C211.271 53.0689 215.25 46.9764 220.251 41.1341C221.655 39.4844 222.996 37.8001 224.333 36.0947C227.046 33.1758 229.96 30.345 233.057 27.8493C233.469 27.8493 233.88 27.8493 234.304 27.8493C234.304 27.4307 234.304 27.0121 234.304 26.5808C235.609 25.5443 236.907 24.5882 238.276 23.6474C238.652 23.3808 239.028 23.1143 239.415 22.8397C242.239 20.8725 242.239 20.8725 243.651 20.8725C243.651 20.4539 243.651 20.0353 243.651 19.604C244.454 19.1781 245.259 18.7559 246.066 18.3355C246.514 18.1 246.962 17.8645 247.424 17.6219C248.636 17.067 248.636 17.067 249.882 17.067C249.882 16.6483 249.882 16.2297 249.882 15.7984C250.88 15.3716 251.88 14.9497 252.881 14.5299C253.438 14.2945 253.995 14.059 254.568 13.8164C256.114 13.2614 256.114 13.2614 257.983 13.2614C257.983 12.8428 257.983 12.4242 257.983 11.9929C263.529 10.0364 269.087 8.26872 274.758 6.72883C275.207 6.60594 275.656 6.48304 276.118 6.35642C276.512 6.25039 276.906 6.14436 277.312 6.03512C278.61 5.65222 278.61 5.65222 280.065 5.01436C299.093 -2.51817 331.83 -1.00844 350.844 5.85023Z" fill="#A6A6A6"/>
<path d="M88.8157 266.224C89.5324 266.222 90.2492 266.219 90.9876 266.217C92.4952 266.214 94.0028 266.213 95.5104 266.213C97.7703 266.211 100.03 266.2 102.29 266.188C111.235 266.166 120.116 266.382 128.992 267.599C129.197 267.808 129.403 268.017 129.615 268.233C130.74 268.437 131.872 268.606 133.006 268.761C133.712 268.86 134.419 268.96 135.147 269.062C135.904 269.168 136.662 269.274 137.443 269.383C143.198 270.214 148.783 271.204 154.39 272.755C156.189 273.246 157.968 273.638 159.799 273.981C162.215 274.448 164.467 275.151 166.785 275.98C168.414 276.534 170.055 276.985 171.716 277.43C174.156 278.092 176.483 278.871 178.831 279.811C180.248 280.343 181.677 280.771 183.128 281.196C186.364 282.165 189.436 283.417 192.553 284.724C193.661 285.172 194.769 285.619 195.878 286.066C202.658 288.802 209.361 291.707 215.982 294.822C217.504 295.518 219.041 296.155 220.594 296.775C220.594 297.193 220.594 297.612 220.594 298.043C221.031 298.108 221.468 298.174 221.919 298.241C223.987 298.745 225.556 299.581 227.449 300.58C229.727 301.653 232.015 302.703 234.304 303.751C234.304 304.17 234.304 304.589 234.304 305.02C234.694 305.15 235.085 305.28 235.487 305.414C235.996 305.585 236.505 305.756 237.03 305.932C237.536 306.101 238.042 306.27 238.564 306.444C239.912 306.923 239.912 306.923 241.158 307.557C241.158 307.976 241.158 308.394 241.158 308.825C241.951 309.068 241.951 309.068 242.76 309.316C245.045 310.148 247.057 311.202 249.181 312.393C249.9 312.794 250.618 313.194 251.358 313.607C251.899 313.913 252.44 314.219 252.998 314.534C252.998 314.952 252.998 315.371 252.998 315.802C253.564 315.985 254.129 316.169 254.712 316.357C256.315 316.922 257.742 317.524 259.23 318.339C259.23 318.758 259.23 319.177 259.23 319.608C259.773 319.771 260.316 319.933 260.875 320.101C263.007 320.89 264.664 321.865 266.552 323.136C268.758 324.636 268.758 324.636 271.069 325.95C271.069 326.369 271.069 326.788 271.069 327.219C271.509 327.382 271.948 327.546 272.401 327.714C274.336 328.553 276.03 329.564 277.807 330.707C278.415 331.093 279.023 331.479 279.65 331.877C280.109 332.223 280.567 332.57 281.04 332.927C281.04 333.346 281.04 333.764 281.04 334.196C281.487 334.358 281.935 334.521 282.396 334.689C284.262 335.511 285.743 336.51 287.388 337.724C289.439 339.252 289.439 339.252 291.633 340.538C291.633 340.957 291.633 341.376 291.633 341.807C292.079 341.961 292.525 342.114 292.984 342.273C294.992 343.186 296.386 344.322 298.06 345.771C301.482 348.688 304.927 351.472 308.653 353.977C311.433 355.885 311.433 355.885 312.197 357.029C312.009 358.09 311.798 359.147 311.574 360.2C311.467 361.354 311.379 362.51 311.306 363.666C310.105 381.496 310.105 381.496 306.538 389.926C305.825 391.612 305.262 393.335 304.719 395.084C304.308 395.084 303.897 395.084 303.473 395.084C303.396 395.542 303.319 396 303.239 396.472C302.856 398.229 302.299 399.776 301.604 401.427C301.192 401.427 300.781 401.427 300.357 401.427C300.201 401.984 300.044 402.541 299.883 403.114C299.082 405.313 298.123 406.82 296.735 408.681C296.29 409.284 295.845 409.887 295.387 410.507C294.763 411.35 294.763 411.35 294.126 412.209C293.565 413.027 293.006 413.845 292.451 414.667C291.05 416.594 289.571 418.141 287.894 419.821C287.334 420.406 286.773 420.991 286.195 421.594C278.042 430.083 268.701 437.731 257.983 442.654C257.366 442.654 256.75 442.654 256.114 442.654C256.114 443.072 256.114 443.491 256.114 443.922C253.208 444.987 250.3 446.042 247.39 447.094C246.902 447.273 246.415 447.453 245.912 447.639C235.162 451.478 221.764 454.719 210.624 450.899C208.47 449.822 206.457 448.56 204.432 447.252C203.656 446.764 203.656 446.764 202.865 446.266C201.823 445.61 200.782 444.951 199.742 444.289C193.348 440.242 186.85 436.516 180.09 433.14C180.09 432.721 180.09 432.303 180.09 431.871C179.707 431.741 179.324 431.611 178.929 431.477C175.77 430.406 175.77 430.406 172.612 429.334C172.612 428.916 172.612 428.497 172.612 428.066C171.959 427.871 171.959 427.871 171.293 427.672C170.726 427.501 170.159 427.33 169.574 427.154C169.01 426.985 168.446 426.816 167.865 426.641C166.381 426.163 166.381 426.163 165.134 425.529C165.134 425.11 165.134 424.692 165.134 424.26C164.659 424.221 164.183 424.182 163.693 424.141C161.695 423.693 160.298 423.16 158.474 422.278C155.209 420.712 151.888 419.389 148.504 418.116C148.008 417.927 147.512 417.739 147.002 417.545C143.937 416.402 140.895 415.497 137.716 414.746C137.716 414.328 137.716 413.909 137.716 413.478C136.771 413.38 136.771 413.38 135.807 413.28C133.111 412.938 130.45 412.427 127.784 411.892C127.364 411.809 126.943 411.727 126.51 411.641C123.459 411.018 123.459 411.018 122.76 410.307C101.515 406.583 80.6985 407.734 60.645 415.866C58.8966 416.528 57.2959 416.985 55.4602 417.283C55.4602 417.702 55.4602 418.121 55.4602 418.552C51.3318 420.455 51.3318 420.455 49.2287 420.455C49.2287 420.873 49.2287 421.292 49.2287 421.723C48.4254 422.149 47.6201 422.571 46.814 422.992C46.3658 423.227 45.9176 423.463 45.4557 423.705C44.2435 424.26 44.2435 424.26 42.9972 424.26C42.9972 424.679 42.9972 425.098 42.9972 425.529C38.791 428.066 38.791 428.066 37.3889 428.066C37.3889 428.484 37.3889 428.903 37.3889 429.334C36.3201 430.238 35.2086 431.089 34.0784 431.911C33.4639 432.363 32.8494 432.815 32.2163 433.281C30.5343 434.408 30.5343 434.408 28.6648 435.043C28.4592 435.671 28.2535 436.299 28.0417 436.945C25.8953 438.848 25.8953 438.848 24.3028 438.848C24.1421 439.228 23.9815 439.607 23.8159 439.998C22.9871 441.512 22.2062 442.222 20.8755 443.288C17.41 446.279 14.6428 449.821 11.8398 453.436C11.4085 453.992 10.9771 454.548 10.5327 455.121C7.4074 459.32 4.89532 463.788 2.41957 468.401C1.2463 470.561 1.2463 470.561 0 472.464C0 412.603 0 352.741 0 291.066C2.7219 289.483 5.38336 287.966 8.17882 286.547C8.79734 286.232 9.41587 285.916 10.0531 285.591C14.4535 283.455 14.4535 283.455 16.825 283.455C16.825 283.037 16.825 282.618 16.825 282.187C17.6829 281.876 17.6829 281.876 18.5581 281.56C19.7052 281.144 19.7052 281.144 20.8755 280.72C21.2769 280.574 21.6783 280.429 22.0919 280.279C24.136 279.537 26.1729 278.781 28.1975 277.985C30.5163 277.119 32.8431 276.389 35.2127 275.685C36.6425 275.248 38.0448 274.762 39.4531 274.258C42.4106 273.237 45.4254 272.556 48.4741 271.877C49.841 271.554 51.1976 271.183 52.5416 270.772C55.2258 270.028 57.891 269.594 60.6401 269.184C63.7874 268.701 66.9166 268.218 70.0263 267.519C76.1747 266.21 82.5586 266.23 88.8157 266.224Z" fill="#474747"/>
<path d="M549.729 619.386C553.796 620.778 557.643 622.7 561.456 624.686C561.456 625.104 561.456 625.523 561.456 625.954C562.134 626.187 562.134 626.187 562.824 626.425C568.014 628.794 573.889 634.841 576.062 640.225C576.177 640.748 576.293 641.272 576.412 641.811C576.823 641.811 577.235 641.811 577.658 641.811C579.528 646.013 579.528 646.013 579.528 648.153C579.939 648.153 580.35 648.153 580.774 648.153C584.872 661.689 585.137 676.711 578.593 689.459C574.448 696.842 569.182 703.761 562.08 708.408C561.372 708.882 561.372 708.882 560.651 709.367C556.746 711.875 552.707 713.781 548.37 715.385C547.824 715.589 547.278 715.793 546.715 716.004C542.449 717.339 538.271 717.463 533.843 717.485C533.255 717.489 532.667 717.493 532.062 717.496C528.758 717.461 525.979 717.106 522.821 716.019C522.175 715.839 521.53 715.659 520.864 715.474C513.652 713.371 508.027 710.059 502.257 705.236C501.448 704.648 501.448 704.648 500.622 704.047C498.353 701.981 496.473 699.564 494.78 696.991C494.78 696.572 494.78 696.154 494.78 695.723C494.368 695.723 493.957 695.723 493.533 695.723C486.691 683.059 483.446 669.977 487.21 655.607C489.482 647.934 492.88 641.64 497.895 635.468C498.384 634.814 498.872 634.16 499.375 633.486C502.339 630.183 505.573 627.476 509.735 625.954C509.735 625.536 509.735 625.117 509.735 624.686C514.923 621.634 519.81 620.067 525.63 618.826C533.691 617.037 541.643 617.046 549.729 619.386Z" fill="#A6A6A6"/>
<path d="M638.727 514.325C639.338 514.607 639.949 514.889 640.579 515.18C644.658 517.148 648.563 519.329 651.813 522.57C651.813 522.989 651.813 523.408 651.813 523.839C652.178 523.99 652.544 524.141 652.92 524.297C654.59 525.274 655.39 526.347 656.526 527.922C657.943 529.91 657.943 529.91 659.602 531.678C662.143 534.506 663.453 538.727 664.899 542.232C665.175 542.899 665.452 543.567 665.736 544.254C669.483 555.148 668.284 567.779 664.276 578.385C664.07 579.013 663.865 579.641 663.653 580.288C663.241 580.288 662.83 580.288 662.406 580.288C662.293 580.678 662.18 581.068 662.063 581.47C661.907 581.982 661.75 582.495 661.589 583.023C661.437 583.531 661.285 584.038 661.129 584.562C660.503 586.078 659.847 586.803 658.668 587.899C658.385 588.383 658.102 588.867 657.811 589.366C655.548 593.175 652.674 595.896 649.32 598.681C648.607 599.309 648.607 599.309 647.879 599.95C636.662 608.446 623.622 611.403 609.828 609.477C606.638 608.96 603.691 608.19 600.715 606.927C600.148 606.7 599.581 606.474 598.996 606.24C597.487 605.635 595.984 605.018 594.483 604.39C594.483 603.971 594.483 603.552 594.483 603.121C593.905 602.938 593.327 602.755 592.731 602.566C590.744 601.853 590.744 601.853 588.875 600.584C588.875 600.165 588.875 599.747 588.875 599.315C588.2 599.1 588.2 599.1 587.512 598.879C585.361 597.858 584.247 596.663 582.644 594.876C582.317 594.553 581.99 594.23 581.653 593.897C572.964 584.812 569.942 571.802 569.994 559.573C570.257 545.238 575.888 533.918 585.759 523.839C590.134 519.695 594.632 516.771 600.092 514.325C600.618 514.077 601.144 513.83 601.686 513.574C612.964 508.56 627.651 509.092 638.727 514.325Z" fill="#A6A6A6"/>
<path d="M660.435 628.224C662.62 628.52 664.001 629.129 665.912 630.235C666.485 630.559 667.059 630.883 667.65 631.217C669.241 632.283 670.438 633.442 671.754 634.834C672.371 635.148 672.371 635.148 673 635.468C673.072 643.104 673.128 650.74 673.161 658.376C673.178 661.922 673.2 665.468 673.235 669.013C673.269 672.435 673.288 675.856 673.296 679.278C673.301 680.584 673.313 681.889 673.329 683.195C673.352 685.023 673.355 686.851 673.354 688.679C673.365 689.219 673.376 689.76 673.388 690.316C673.364 693.063 673.273 694.111 671.516 696.316C670.708 696.964 670.708 696.964 669.884 697.625C669.377 698.069 668.871 698.513 668.348 698.971C663.795 702.406 658.751 704.327 653.247 705.526C651.844 705.728 651.844 705.728 651.19 706.505C649.014 706.684 646.829 706.652 644.647 706.663C644.043 706.677 643.439 706.69 642.816 706.703C638.794 706.725 635.598 706.115 631.872 704.602C631.287 704.403 630.701 704.205 630.098 704C628.82 703.567 627.542 703.133 626.264 702.699C626.264 702.281 626.264 701.862 626.264 701.431C625.737 701.3 625.21 701.169 624.667 701.034C622.003 699.95 620.003 698.615 618.163 696.357C617.696 694.375 617.696 694.375 618.163 692.551C620.339 690.129 623.199 688.973 626.264 688.111C626.881 688.111 627.498 688.111 628.133 688.111C628.133 687.693 628.133 687.274 628.133 686.843C628.684 686.658 629.234 686.473 629.801 686.283C635.579 684.274 640.86 681.88 645.932 678.36C647.451 677.329 647.451 677.329 648.697 677.329C649.006 676.387 649.006 676.387 649.32 675.426C649.796 674.968 650.272 674.511 650.761 674.039C652.733 671.939 653.781 669.811 654.929 667.181C655.34 667.181 655.751 667.181 656.175 667.181C656.791 663.056 656.852 659.069 656.793 654.902C656.782 653.514 656.772 652.126 656.762 650.737C656.742 648.564 656.72 646.392 656.691 644.219C656.665 642.111 656.65 640.004 656.638 637.896C656.626 637.245 656.614 636.594 656.602 635.924C656.599 635.015 656.599 635.015 656.596 634.089C656.59 633.557 656.584 633.026 656.578 632.479C656.968 629.912 657.899 628.608 660.435 628.224Z" fill="#A6A6A6"/>
</svg>
