<svg width="209" height="263" viewBox="0 0 209 263" fill="none" xmlns="http://www.w3.org/2000/svg">
<path fill-rule="evenodd" clip-rule="evenodd" d="M89.0635 40.5093C80.6635 34.9026 67.5861 34.2653 66.4928 20.988C66.5288 13.1026 70.7901 6.58264 77.3461 2.9573C92.1888 -4.09069 108.125 2.13597 116.339 14.484C125.118 29.5266 124.646 48.7586 112.665 61.3986C100.682 74.04 95.7635 55.9373 93.5981 46.832C92.5341 44.5226 91.0368 42.3666 89.0635 40.5093Z" fill="#6E5C48"/>
<path d="M166.746 203.767C148.21 226.516 126.879 245.52 104.73 262.812L103.589 262.947C92.2339 253.904 80.9685 244.675 70.2432 234.559C57.7432 222.768 43.2459 210.871 57.6272 190.727L105.821 146.156C107.086 145.533 111.681 147.941 112.966 148.839C119.55 153.435 121.629 163.06 121.281 171.751C120.946 171.952 120.622 172.165 120.33 172.455C95.0019 197.537 120.658 172.029 95.1939 196.919C92.0779 199.964 88.4285 202.957 85.4672 206.099C84.7085 206.903 83.1219 208.317 83.4672 209.596C83.7925 210.801 87.0392 214.275 87.9912 215.253C92.8152 220.215 98.3512 224.332 103.479 228.811C104.117 229.341 104.782 228.599 105.335 228.187C112.973 222.505 121.71 214.076 128.727 207.177C149.906 186.359 177.291 153.445 183.543 120.313C188.151 95.8881 178.671 78.8655 157.061 82.5775C138.089 85.8361 121.022 102.248 107.094 117.032C85.6792 137.096 64.9739 158.369 43.2499 177.904C36.3965 181.985 28.2352 181.26 22.1859 175.528C18.6539 172.183 14.9539 164.165 12.6845 159.311C-0.754135 130.552 -8.62347 89.5588 15.8752 65.7495C38.7619 43.5055 67.7592 53.3054 89.7125 71.0521C89.7125 71.0521 89.5365 71.5201 89.5392 71.6841C89.6685 82.4108 78.5325 90.6788 69.7579 89.6641C69.0752 89.5841 66.3445 87.7348 65.5072 87.2548C53.6925 80.4908 41.9072 77.0161 30.4792 88.0121C18.7365 99.3121 24.0845 122.86 29.4512 136.829C30.5219 139.616 31.9885 143.251 33.4819 145.7C33.6965 146.052 34.2605 147.169 34.5899 147.129C35.5632 146.457 36.4579 145.608 37.3205 144.752C53.9912 128.188 71.5672 112.808 88.7832 97.0468C109.706 77.8948 128.481 57.7774 155.978 54.2014C186.517 50.2294 210.334 75.0948 208.149 112.996C206.154 147.573 186.135 179.968 166.746 203.767Z" fill="#E5AB88"/>
<path d="M161.809 125.762C165.593 128.059 166.736 132.979 164.361 136.751C161.988 140.522 156.995 141.717 153.211 139.419C149.428 137.121 157.036 137.435 159.411 133.663C161.785 129.893 158.025 123.465 161.809 125.762Z" fill="#6E5C48"/>
<path d="M137.293 123.348C142.57 124.452 145.878 129.638 144.681 134.932C143.484 140.225 138.236 143.622 132.958 142.518C127.681 141.414 124.373 136.228 125.57 130.934C126.768 125.64 132.016 122.244 137.293 123.348Z" fill="#6E5C48"/>
<path d="M154.342 101.92C159.619 103.024 162.927 108.21 161.73 113.504C160.532 118.797 155.284 122.194 150.007 121.09C144.73 119.986 141.422 114.8 142.619 109.506C143.816 104.212 149.064 100.816 154.342 101.92Z" fill="#6E5C48"/>
</svg>
